G04 #@! TF.GenerationSoftware,KiCad,Pcbnew,5.1.2-f72e74a~84~ubuntu18.04.1*
G04 #@! TF.CreationDate,2019-06-18T11:16:38+09:00*
G04 #@! TF.ProjectId,top-plate,746f702d-706c-4617-9465-2e6b69636164,rev?*
G04 #@! TF.SameCoordinates,Original*
G04 #@! TF.FileFunction,Legend,Top*
G04 #@! TF.FilePolarity,Positive*
%FSLAX46Y46*%
G04 Gerber Fmt 4.6, Leading zero omitted, Abs format (unit mm)*
G04 Created by KiCad (PCBNEW 5.1.2-f72e74a~84~ubuntu18.04.1) date 2019-06-18 11:16:38*
%MOMM*%
%LPD*%
G04 APERTURE LIST*
%ADD10C,0.150000*%
%ADD11C,5.102000*%
%ADD12C,2.302000*%
%ADD13C,0.254000*%
G04 APERTURE END LIST*
D10*
%LPC*%
D11*
X123825000Y-80962500D03*
X66675000Y-80962500D03*
D12*
X128588000Y-80962500D03*
X61912000Y-80962500D03*
X66675000Y-42862500D03*
X123825000Y-42862500D03*
D13*
G36*
X64155029Y-24130846D02*
G01*
X64214799Y-24444172D01*
X64313368Y-24747536D01*
X64449181Y-25036154D01*
X64620097Y-25305475D01*
X64823420Y-25551250D01*
X65055943Y-25769604D01*
X65314000Y-25957093D01*
X65593521Y-26110761D01*
X65890097Y-26228184D01*
X66199051Y-26307510D01*
X66515512Y-26347488D01*
X66834488Y-26347488D01*
X66913551Y-26337500D01*
X69200000Y-26337500D01*
X69200000Y-40337500D01*
X83200000Y-40337500D01*
X83200000Y-26337500D01*
X88250000Y-26337500D01*
X88250000Y-40337500D01*
X102250000Y-40337500D01*
X102250000Y-26337500D01*
X107300000Y-26337500D01*
X107300000Y-40337500D01*
X121300000Y-40337500D01*
X121300000Y-26337500D01*
X107300000Y-26337500D01*
X102250000Y-26337500D01*
X88250000Y-26337500D01*
X83200000Y-26337500D01*
X69200000Y-26337500D01*
X66913551Y-26337500D01*
X67150949Y-26307510D01*
X67459903Y-26228184D01*
X67756479Y-26110761D01*
X68036000Y-25957093D01*
X68294057Y-25769604D01*
X68526580Y-25551250D01*
X68729903Y-25305475D01*
X68900819Y-25036154D01*
X69036632Y-24747536D01*
X69135201Y-24444172D01*
X69194971Y-24130846D01*
X69207010Y-23939500D01*
X121292990Y-23939500D01*
X121305029Y-24130846D01*
X121364799Y-24444172D01*
X121463368Y-24747536D01*
X121599181Y-25036154D01*
X121770097Y-25305475D01*
X121973420Y-25551250D01*
X122205943Y-25769604D01*
X122464000Y-25957093D01*
X122743521Y-26110761D01*
X123040097Y-26228184D01*
X123349051Y-26307510D01*
X123665512Y-26347488D01*
X123984488Y-26347488D01*
X124063551Y-26337500D01*
X126350000Y-26337500D01*
X126350000Y-40337500D01*
X140350000Y-40337500D01*
X140350000Y-26337500D01*
X126350000Y-26337500D01*
X124063551Y-26337500D01*
X124300949Y-26307510D01*
X124609903Y-26228184D01*
X124906479Y-26110761D01*
X125186000Y-25957093D01*
X125444057Y-25769604D01*
X125676580Y-25551250D01*
X125879903Y-25305475D01*
X126050819Y-25036154D01*
X126186632Y-24747536D01*
X126285201Y-24444172D01*
X126344971Y-24130846D01*
X126357010Y-23939500D01*
X139182802Y-23939500D01*
X139415820Y-23994305D01*
X139832913Y-24134101D01*
X140235329Y-24311785D01*
X140619633Y-24525841D01*
X140982547Y-24774443D01*
X141320976Y-25055470D01*
X141632030Y-25366524D01*
X141913057Y-25704953D01*
X142161659Y-26067867D01*
X142375715Y-26452171D01*
X142553399Y-26854587D01*
X142693195Y-27271680D01*
X142748000Y-27504698D01*
X142748000Y-96320302D01*
X142693195Y-96553320D01*
X142553399Y-96970413D01*
X142375715Y-97372829D01*
X142161659Y-97757133D01*
X141913057Y-98120047D01*
X141632030Y-98458476D01*
X141320976Y-98769530D01*
X140982547Y-99050557D01*
X140619633Y-99299159D01*
X140235329Y-99513215D01*
X139832913Y-99690899D01*
X139415820Y-99830695D01*
X139182802Y-99885500D01*
X51317198Y-99885500D01*
X51084180Y-99830695D01*
X50667087Y-99690899D01*
X50264671Y-99513215D01*
X49880367Y-99299159D01*
X49517453Y-99050557D01*
X49179024Y-98769530D01*
X48867970Y-98458476D01*
X48586943Y-98120047D01*
X48338341Y-97757133D01*
X48124285Y-97372829D01*
X47946601Y-96970413D01*
X47806805Y-96553320D01*
X47752000Y-96320302D01*
X47752000Y-83487500D01*
X50150000Y-83487500D01*
X50150000Y-97487500D01*
X64150000Y-97487500D01*
X64150000Y-83487500D01*
X69200000Y-83487500D01*
X69200000Y-97487500D01*
X83200000Y-97487500D01*
X83200000Y-83487500D01*
X88250000Y-83487500D01*
X88250000Y-97487500D01*
X102250000Y-97487500D01*
X102250000Y-83487500D01*
X107300000Y-83487500D01*
X107300000Y-97487500D01*
X121300000Y-97487500D01*
X121300000Y-83487500D01*
X126350000Y-83487500D01*
X126350000Y-97487500D01*
X140350000Y-97487500D01*
X140350000Y-83487500D01*
X126350000Y-83487500D01*
X121300000Y-83487500D01*
X107300000Y-83487500D01*
X102250000Y-83487500D01*
X88250000Y-83487500D01*
X83200000Y-83487500D01*
X69200000Y-83487500D01*
X64150000Y-83487500D01*
X50150000Y-83487500D01*
X47752000Y-83487500D01*
X47752000Y-64437500D01*
X50150000Y-64437500D01*
X50150000Y-78437500D01*
X64150000Y-78437500D01*
X64150000Y-64437500D01*
X69200000Y-64437500D01*
X69200000Y-78437500D01*
X83200000Y-78437500D01*
X83200000Y-64437500D01*
X88250000Y-64437500D01*
X88250000Y-78437500D01*
X102250000Y-78437500D01*
X102250000Y-64437500D01*
X107300000Y-64437500D01*
X107300000Y-78437500D01*
X121300000Y-78437500D01*
X121300000Y-64437500D01*
X126350000Y-64437500D01*
X126350000Y-78437500D01*
X140350000Y-78437500D01*
X140350000Y-64437500D01*
X126350000Y-64437500D01*
X121300000Y-64437500D01*
X107300000Y-64437500D01*
X102250000Y-64437500D01*
X88250000Y-64437500D01*
X83200000Y-64437500D01*
X69200000Y-64437500D01*
X64150000Y-64437500D01*
X50150000Y-64437500D01*
X47752000Y-64437500D01*
X47752000Y-45387500D01*
X50150000Y-45387500D01*
X50150000Y-59387500D01*
X64150000Y-59387500D01*
X64150000Y-45387500D01*
X69200000Y-45387500D01*
X69200000Y-59387500D01*
X83200000Y-59387500D01*
X83200000Y-45387500D01*
X88250000Y-45387500D01*
X88250000Y-59387500D01*
X102250000Y-59387500D01*
X102250000Y-45387500D01*
X107300000Y-45387500D01*
X107300000Y-59387500D01*
X121300000Y-59387500D01*
X121300000Y-45387500D01*
X126350000Y-45387500D01*
X126350000Y-59387500D01*
X140350000Y-59387500D01*
X140350000Y-45387500D01*
X126350000Y-45387500D01*
X121300000Y-45387500D01*
X107300000Y-45387500D01*
X102250000Y-45387500D01*
X88250000Y-45387500D01*
X83200000Y-45387500D01*
X69200000Y-45387500D01*
X64150000Y-45387500D01*
X50150000Y-45387500D01*
X47752000Y-45387500D01*
X47752000Y-27504698D01*
X47806805Y-27271680D01*
X47946601Y-26854587D01*
X48124285Y-26452171D01*
X48188156Y-26337500D01*
X50150000Y-26337500D01*
X50150000Y-40337500D01*
X64150000Y-40337500D01*
X64150000Y-26337500D01*
X50150000Y-26337500D01*
X48188156Y-26337500D01*
X48338341Y-26067867D01*
X48586943Y-25704953D01*
X48867970Y-25366524D01*
X49179024Y-25055470D01*
X49517453Y-24774443D01*
X49880367Y-24525841D01*
X50264671Y-24311785D01*
X50667087Y-24134101D01*
X51084180Y-23994305D01*
X51317198Y-23939500D01*
X64142990Y-23939500D01*
X64155029Y-24130846D01*
X64155029Y-24130846D01*
G37*
X64155029Y-24130846D02*
X64214799Y-24444172D01*
X64313368Y-24747536D01*
X64449181Y-25036154D01*
X64620097Y-25305475D01*
X64823420Y-25551250D01*
X65055943Y-25769604D01*
X65314000Y-25957093D01*
X65593521Y-26110761D01*
X65890097Y-26228184D01*
X66199051Y-26307510D01*
X66515512Y-26347488D01*
X66834488Y-26347488D01*
X66913551Y-26337500D01*
X69200000Y-26337500D01*
X69200000Y-40337500D01*
X83200000Y-40337500D01*
X83200000Y-26337500D01*
X88250000Y-26337500D01*
X88250000Y-40337500D01*
X102250000Y-40337500D01*
X102250000Y-26337500D01*
X107300000Y-26337500D01*
X107300000Y-40337500D01*
X121300000Y-40337500D01*
X121300000Y-26337500D01*
X107300000Y-26337500D01*
X102250000Y-26337500D01*
X88250000Y-26337500D01*
X83200000Y-26337500D01*
X69200000Y-26337500D01*
X66913551Y-26337500D01*
X67150949Y-26307510D01*
X67459903Y-26228184D01*
X67756479Y-26110761D01*
X68036000Y-25957093D01*
X68294057Y-25769604D01*
X68526580Y-25551250D01*
X68729903Y-25305475D01*
X68900819Y-25036154D01*
X69036632Y-24747536D01*
X69135201Y-24444172D01*
X69194971Y-24130846D01*
X69207010Y-23939500D01*
X121292990Y-23939500D01*
X121305029Y-24130846D01*
X121364799Y-24444172D01*
X121463368Y-24747536D01*
X121599181Y-25036154D01*
X121770097Y-25305475D01*
X121973420Y-25551250D01*
X122205943Y-25769604D01*
X122464000Y-25957093D01*
X122743521Y-26110761D01*
X123040097Y-26228184D01*
X123349051Y-26307510D01*
X123665512Y-26347488D01*
X123984488Y-26347488D01*
X124063551Y-26337500D01*
X126350000Y-26337500D01*
X126350000Y-40337500D01*
X140350000Y-40337500D01*
X140350000Y-26337500D01*
X126350000Y-26337500D01*
X124063551Y-26337500D01*
X124300949Y-26307510D01*
X124609903Y-26228184D01*
X124906479Y-26110761D01*
X125186000Y-25957093D01*
X125444057Y-25769604D01*
X125676580Y-25551250D01*
X125879903Y-25305475D01*
X126050819Y-25036154D01*
X126186632Y-24747536D01*
X126285201Y-24444172D01*
X126344971Y-24130846D01*
X126357010Y-23939500D01*
X139182802Y-23939500D01*
X139415820Y-23994305D01*
X139832913Y-24134101D01*
X140235329Y-24311785D01*
X140619633Y-24525841D01*
X140982547Y-24774443D01*
X141320976Y-25055470D01*
X141632030Y-25366524D01*
X141913057Y-25704953D01*
X142161659Y-26067867D01*
X142375715Y-26452171D01*
X142553399Y-26854587D01*
X142693195Y-27271680D01*
X142748000Y-27504698D01*
X142748000Y-96320302D01*
X142693195Y-96553320D01*
X142553399Y-96970413D01*
X142375715Y-97372829D01*
X142161659Y-97757133D01*
X141913057Y-98120047D01*
X141632030Y-98458476D01*
X141320976Y-98769530D01*
X140982547Y-99050557D01*
X140619633Y-99299159D01*
X140235329Y-99513215D01*
X139832913Y-99690899D01*
X139415820Y-99830695D01*
X139182802Y-99885500D01*
X51317198Y-99885500D01*
X51084180Y-99830695D01*
X50667087Y-99690899D01*
X50264671Y-99513215D01*
X49880367Y-99299159D01*
X49517453Y-99050557D01*
X49179024Y-98769530D01*
X48867970Y-98458476D01*
X48586943Y-98120047D01*
X48338341Y-97757133D01*
X48124285Y-97372829D01*
X47946601Y-96970413D01*
X47806805Y-96553320D01*
X47752000Y-96320302D01*
X47752000Y-83487500D01*
X50150000Y-83487500D01*
X50150000Y-97487500D01*
X64150000Y-97487500D01*
X64150000Y-83487500D01*
X69200000Y-83487500D01*
X69200000Y-97487500D01*
X83200000Y-97487500D01*
X83200000Y-83487500D01*
X88250000Y-83487500D01*
X88250000Y-97487500D01*
X102250000Y-97487500D01*
X102250000Y-83487500D01*
X107300000Y-83487500D01*
X107300000Y-97487500D01*
X121300000Y-97487500D01*
X121300000Y-83487500D01*
X126350000Y-83487500D01*
X126350000Y-97487500D01*
X140350000Y-97487500D01*
X140350000Y-83487500D01*
X126350000Y-83487500D01*
X121300000Y-83487500D01*
X107300000Y-83487500D01*
X102250000Y-83487500D01*
X88250000Y-83487500D01*
X83200000Y-83487500D01*
X69200000Y-83487500D01*
X64150000Y-83487500D01*
X50150000Y-83487500D01*
X47752000Y-83487500D01*
X47752000Y-64437500D01*
X50150000Y-64437500D01*
X50150000Y-78437500D01*
X64150000Y-78437500D01*
X64150000Y-64437500D01*
X69200000Y-64437500D01*
X69200000Y-78437500D01*
X83200000Y-78437500D01*
X83200000Y-64437500D01*
X88250000Y-64437500D01*
X88250000Y-78437500D01*
X102250000Y-78437500D01*
X102250000Y-64437500D01*
X107300000Y-64437500D01*
X107300000Y-78437500D01*
X121300000Y-78437500D01*
X121300000Y-64437500D01*
X126350000Y-64437500D01*
X126350000Y-78437500D01*
X140350000Y-78437500D01*
X140350000Y-64437500D01*
X126350000Y-64437500D01*
X121300000Y-64437500D01*
X107300000Y-64437500D01*
X102250000Y-64437500D01*
X88250000Y-64437500D01*
X83200000Y-64437500D01*
X69200000Y-64437500D01*
X64150000Y-64437500D01*
X50150000Y-64437500D01*
X47752000Y-64437500D01*
X47752000Y-45387500D01*
X50150000Y-45387500D01*
X50150000Y-59387500D01*
X64150000Y-59387500D01*
X64150000Y-45387500D01*
X69200000Y-45387500D01*
X69200000Y-59387500D01*
X83200000Y-59387500D01*
X83200000Y-45387500D01*
X88250000Y-45387500D01*
X88250000Y-59387500D01*
X102250000Y-59387500D01*
X102250000Y-45387500D01*
X107300000Y-45387500D01*
X107300000Y-59387500D01*
X121300000Y-59387500D01*
X121300000Y-45387500D01*
X126350000Y-45387500D01*
X126350000Y-59387500D01*
X140350000Y-59387500D01*
X140350000Y-45387500D01*
X126350000Y-45387500D01*
X121300000Y-45387500D01*
X107300000Y-45387500D01*
X102250000Y-45387500D01*
X88250000Y-45387500D01*
X83200000Y-45387500D01*
X69200000Y-45387500D01*
X64150000Y-45387500D01*
X50150000Y-45387500D01*
X47752000Y-45387500D01*
X47752000Y-27504698D01*
X47806805Y-27271680D01*
X47946601Y-26854587D01*
X48124285Y-26452171D01*
X48188156Y-26337500D01*
X50150000Y-26337500D01*
X50150000Y-40337500D01*
X64150000Y-40337500D01*
X64150000Y-26337500D01*
X50150000Y-26337500D01*
X48188156Y-26337500D01*
X48338341Y-26067867D01*
X48586943Y-25704953D01*
X48867970Y-25366524D01*
X49179024Y-25055470D01*
X49517453Y-24774443D01*
X49880367Y-24525841D01*
X50264671Y-24311785D01*
X50667087Y-24134101D01*
X51084180Y-23994305D01*
X51317198Y-23939500D01*
X64142990Y-23939500D01*
X64155029Y-24130846D01*
M02*
