G04 #@! TF.GenerationSoftware,KiCad,Pcbnew,5.1.2-f72e74a~84~ubuntu18.04.1*
G04 #@! TF.CreationDate,2019-06-18T11:16:38+09:00*
G04 #@! TF.ProjectId,top-plate,746f702d-706c-4617-9465-2e6b69636164,rev?*
G04 #@! TF.SameCoordinates,Original*
G04 #@! TF.FileFunction,Copper,L1,Top*
G04 #@! TF.FilePolarity,Positive*
%FSLAX46Y46*%
G04 Gerber Fmt 4.6, Leading zero omitted, Abs format (unit mm)*
G04 Created by KiCad (PCBNEW 5.1.2-f72e74a~84~ubuntu18.04.1) date 2019-06-18 11:16:38*
%MOMM*%
%LPD*%
G04 APERTURE LIST*
%ADD10C,0.254000*%
G04 APERTURE END LIST*
D10*
G36*
X63510808Y-24545809D02*
G01*
X63513740Y-24555279D01*
X63663631Y-25027794D01*
X63688962Y-25086896D01*
X63713503Y-25146437D01*
X63718218Y-25155158D01*
X63957035Y-25589562D01*
X63993385Y-25642649D01*
X63999930Y-25652500D01*
X50183647Y-25652500D01*
X50150000Y-25649186D01*
X50116353Y-25652500D01*
X50015717Y-25662412D01*
X49886594Y-25701581D01*
X49767593Y-25765188D01*
X49663289Y-25850789D01*
X49577688Y-25955093D01*
X49514081Y-26074094D01*
X49474912Y-26203217D01*
X49461686Y-26337500D01*
X49465000Y-26371147D01*
X49465001Y-40303843D01*
X49461686Y-40337500D01*
X49474912Y-40471783D01*
X49514081Y-40600906D01*
X49577688Y-40719907D01*
X49663289Y-40824211D01*
X49767593Y-40909812D01*
X49886594Y-40973419D01*
X50015717Y-41012588D01*
X50116353Y-41022500D01*
X50150000Y-41025814D01*
X50183647Y-41022500D01*
X64116353Y-41022500D01*
X64150000Y-41025814D01*
X64183647Y-41022500D01*
X64284283Y-41012588D01*
X64413406Y-40973419D01*
X64532407Y-40909812D01*
X64636711Y-40824211D01*
X64722312Y-40719907D01*
X64785919Y-40600906D01*
X64825088Y-40471783D01*
X64838314Y-40337500D01*
X64835000Y-40303853D01*
X64835000Y-26487754D01*
X64839300Y-26491211D01*
X64893137Y-26526441D01*
X64946496Y-26562432D01*
X64955248Y-26567085D01*
X65394558Y-26796751D01*
X65454197Y-26820847D01*
X65513546Y-26845795D01*
X65523036Y-26848660D01*
X65998588Y-26988623D01*
X66061800Y-27000681D01*
X66124837Y-27013621D01*
X66134699Y-27014588D01*
X66134703Y-27014588D01*
X66628383Y-27059516D01*
X66692699Y-27059067D01*
X66757081Y-27059516D01*
X66766947Y-27058549D01*
X67259954Y-27006732D01*
X67322979Y-26993794D01*
X67386201Y-26981734D01*
X67395691Y-26978869D01*
X67869243Y-26832279D01*
X67928498Y-26807371D01*
X67988231Y-26783237D01*
X67996983Y-26778582D01*
X68433044Y-26542805D01*
X68486361Y-26506842D01*
X68515000Y-26488101D01*
X68515001Y-40303843D01*
X68511686Y-40337500D01*
X68524912Y-40471783D01*
X68564081Y-40600906D01*
X68627688Y-40719907D01*
X68713289Y-40824211D01*
X68817593Y-40909812D01*
X68936594Y-40973419D01*
X69065717Y-41012588D01*
X69166353Y-41022500D01*
X69200000Y-41025814D01*
X69233647Y-41022500D01*
X83166353Y-41022500D01*
X83200000Y-41025814D01*
X83233647Y-41022500D01*
X83334283Y-41012588D01*
X83463406Y-40973419D01*
X83582407Y-40909812D01*
X83686711Y-40824211D01*
X83772312Y-40719907D01*
X83835919Y-40600906D01*
X83875088Y-40471783D01*
X83888314Y-40337500D01*
X83885000Y-40303853D01*
X83885000Y-26371147D01*
X83888314Y-26337500D01*
X87561686Y-26337500D01*
X87565000Y-26371147D01*
X87565001Y-40303843D01*
X87561686Y-40337500D01*
X87574912Y-40471783D01*
X87614081Y-40600906D01*
X87677688Y-40719907D01*
X87763289Y-40824211D01*
X87867593Y-40909812D01*
X87986594Y-40973419D01*
X88115717Y-41012588D01*
X88216353Y-41022500D01*
X88250000Y-41025814D01*
X88283647Y-41022500D01*
X102216353Y-41022500D01*
X102250000Y-41025814D01*
X102283647Y-41022500D01*
X102384283Y-41012588D01*
X102513406Y-40973419D01*
X102632407Y-40909812D01*
X102736711Y-40824211D01*
X102822312Y-40719907D01*
X102885919Y-40600906D01*
X102925088Y-40471783D01*
X102938314Y-40337500D01*
X102935000Y-40303853D01*
X102935000Y-26371147D01*
X102938314Y-26337500D01*
X102925088Y-26203217D01*
X102885919Y-26074094D01*
X102822312Y-25955093D01*
X102736711Y-25850789D01*
X102632407Y-25765188D01*
X102513406Y-25701581D01*
X102384283Y-25662412D01*
X102283647Y-25652500D01*
X102250000Y-25649186D01*
X102216353Y-25652500D01*
X88283647Y-25652500D01*
X88250000Y-25649186D01*
X88216353Y-25652500D01*
X88115717Y-25662412D01*
X87986594Y-25701581D01*
X87867593Y-25765188D01*
X87763289Y-25850789D01*
X87677688Y-25955093D01*
X87614081Y-26074094D01*
X87574912Y-26203217D01*
X87561686Y-26337500D01*
X83888314Y-26337500D01*
X83875088Y-26203217D01*
X83835919Y-26074094D01*
X83772312Y-25955093D01*
X83686711Y-25850789D01*
X83582407Y-25765188D01*
X83463406Y-25701581D01*
X83334283Y-25662412D01*
X83233647Y-25652500D01*
X83200000Y-25649186D01*
X83166353Y-25652500D01*
X69350369Y-25652500D01*
X69376449Y-25613247D01*
X69412798Y-25560160D01*
X69417513Y-25551440D01*
X69650240Y-25113744D01*
X69674756Y-25054264D01*
X69700113Y-24995101D01*
X69703044Y-24985631D01*
X69842871Y-24522500D01*
X120656193Y-24522500D01*
X120660808Y-24545809D01*
X120663740Y-24555279D01*
X120813631Y-25027794D01*
X120838962Y-25086896D01*
X120863503Y-25146437D01*
X120868218Y-25155158D01*
X121107035Y-25589562D01*
X121143385Y-25642649D01*
X121149930Y-25652500D01*
X107333647Y-25652500D01*
X107300000Y-25649186D01*
X107266353Y-25652500D01*
X107165717Y-25662412D01*
X107036594Y-25701581D01*
X106917593Y-25765188D01*
X106813289Y-25850789D01*
X106727688Y-25955093D01*
X106664081Y-26074094D01*
X106624912Y-26203217D01*
X106611686Y-26337500D01*
X106615000Y-26371147D01*
X106615001Y-40303843D01*
X106611686Y-40337500D01*
X106624912Y-40471783D01*
X106664081Y-40600906D01*
X106727688Y-40719907D01*
X106813289Y-40824211D01*
X106917593Y-40909812D01*
X107036594Y-40973419D01*
X107165717Y-41012588D01*
X107266353Y-41022500D01*
X107300000Y-41025814D01*
X107333647Y-41022500D01*
X121266353Y-41022500D01*
X121300000Y-41025814D01*
X121333647Y-41022500D01*
X121434283Y-41012588D01*
X121563406Y-40973419D01*
X121682407Y-40909812D01*
X121786711Y-40824211D01*
X121872312Y-40719907D01*
X121935919Y-40600906D01*
X121975088Y-40471783D01*
X121988314Y-40337500D01*
X121985000Y-40303853D01*
X121985000Y-26487754D01*
X121989300Y-26491211D01*
X122043137Y-26526441D01*
X122096496Y-26562432D01*
X122105248Y-26567085D01*
X122544558Y-26796751D01*
X122604197Y-26820847D01*
X122663546Y-26845795D01*
X122673036Y-26848660D01*
X123148588Y-26988623D01*
X123211800Y-27000681D01*
X123274837Y-27013621D01*
X123284699Y-27014588D01*
X123284703Y-27014588D01*
X123778383Y-27059516D01*
X123842699Y-27059067D01*
X123907081Y-27059516D01*
X123916947Y-27058549D01*
X124409954Y-27006732D01*
X124472979Y-26993794D01*
X124536201Y-26981734D01*
X124545691Y-26978869D01*
X125019243Y-26832279D01*
X125078498Y-26807371D01*
X125138231Y-26783237D01*
X125146983Y-26778582D01*
X125583044Y-26542805D01*
X125636361Y-26506842D01*
X125665000Y-26488101D01*
X125665001Y-40303843D01*
X125661686Y-40337500D01*
X125674912Y-40471783D01*
X125714081Y-40600906D01*
X125777688Y-40719907D01*
X125863289Y-40824211D01*
X125967593Y-40909812D01*
X126086594Y-40973419D01*
X126215717Y-41012588D01*
X126316353Y-41022500D01*
X126350000Y-41025814D01*
X126383647Y-41022500D01*
X140316353Y-41022500D01*
X140350000Y-41025814D01*
X140383647Y-41022500D01*
X140484283Y-41012588D01*
X140613406Y-40973419D01*
X140732407Y-40909812D01*
X140836711Y-40824211D01*
X140922312Y-40719907D01*
X140985919Y-40600906D01*
X141025088Y-40471783D01*
X141038314Y-40337500D01*
X141035000Y-40303853D01*
X141035000Y-26371147D01*
X141038314Y-26337500D01*
X141025088Y-26203217D01*
X140985919Y-26074094D01*
X140922312Y-25955093D01*
X140836711Y-25850789D01*
X140732407Y-25765188D01*
X140613406Y-25701581D01*
X140484283Y-25662412D01*
X140383647Y-25652500D01*
X140350000Y-25649186D01*
X140316353Y-25652500D01*
X126500369Y-25652500D01*
X126526449Y-25613247D01*
X126562798Y-25560160D01*
X126567513Y-25551440D01*
X126800240Y-25113744D01*
X126824756Y-25054264D01*
X126850113Y-24995101D01*
X126853044Y-24985631D01*
X126992871Y-24522500D01*
X138079953Y-24522500D01*
X138850465Y-24593300D01*
X139563710Y-24794456D01*
X140228366Y-25122228D01*
X140822150Y-25565628D01*
X141325193Y-26109818D01*
X141720639Y-26736560D01*
X141995250Y-27424879D01*
X142142564Y-28165473D01*
X142155615Y-28414503D01*
X142150636Y-28430915D01*
X142140001Y-28538895D01*
X142140000Y-95286104D01*
X142149670Y-95384287D01*
X142094200Y-95987965D01*
X141893044Y-96701210D01*
X141565272Y-97365866D01*
X141121872Y-97959651D01*
X140577685Y-98462691D01*
X139950940Y-98858139D01*
X139262625Y-99132748D01*
X138522026Y-99280064D01*
X138273000Y-99293114D01*
X138256585Y-99288135D01*
X138148605Y-99277500D01*
X52351395Y-99277500D01*
X52253212Y-99287170D01*
X51649535Y-99231700D01*
X50936290Y-99030544D01*
X50271634Y-98702772D01*
X49677849Y-98259372D01*
X49174809Y-97715185D01*
X48779361Y-97088440D01*
X48504752Y-96400125D01*
X48357436Y-95659526D01*
X48344386Y-95410500D01*
X48349365Y-95394085D01*
X48360000Y-95286105D01*
X48360000Y-64437500D01*
X49461686Y-64437500D01*
X49465000Y-64471147D01*
X49465001Y-78403843D01*
X49461686Y-78437500D01*
X49474912Y-78571783D01*
X49514081Y-78700906D01*
X49577688Y-78819907D01*
X49663289Y-78924211D01*
X49767593Y-79009812D01*
X49886594Y-79073419D01*
X50015717Y-79112588D01*
X50116353Y-79122500D01*
X50150000Y-79125814D01*
X50183647Y-79122500D01*
X64116353Y-79122500D01*
X64132925Y-79124132D01*
X63896799Y-79477521D01*
X63660476Y-80048054D01*
X63579597Y-80454661D01*
X63449537Y-80140669D01*
X63259663Y-79856502D01*
X63017998Y-79614837D01*
X62733831Y-79424963D01*
X62418081Y-79294175D01*
X62082883Y-79227500D01*
X61741117Y-79227500D01*
X61405919Y-79294175D01*
X61090169Y-79424963D01*
X60806002Y-79614837D01*
X60564337Y-79856502D01*
X60374463Y-80140669D01*
X60243675Y-80456419D01*
X60177000Y-80791617D01*
X60177000Y-81133383D01*
X60243675Y-81468581D01*
X60374463Y-81784331D01*
X60564337Y-82068498D01*
X60806002Y-82310163D01*
X61090169Y-82500037D01*
X61405919Y-82630825D01*
X61741117Y-82697500D01*
X62082883Y-82697500D01*
X62418081Y-82630825D01*
X62733831Y-82500037D01*
X63017998Y-82310163D01*
X63259663Y-82068498D01*
X63449537Y-81784331D01*
X63579597Y-81470339D01*
X63660476Y-81876946D01*
X63896799Y-82447479D01*
X64132925Y-82800868D01*
X64116353Y-82802500D01*
X50183647Y-82802500D01*
X50150000Y-82799186D01*
X50116353Y-82802500D01*
X50015717Y-82812412D01*
X49886594Y-82851581D01*
X49767593Y-82915188D01*
X49663289Y-83000789D01*
X49577688Y-83105093D01*
X49514081Y-83224094D01*
X49474912Y-83353217D01*
X49461686Y-83487500D01*
X49465000Y-83521147D01*
X49465001Y-97453843D01*
X49461686Y-97487500D01*
X49474912Y-97621783D01*
X49514081Y-97750906D01*
X49577688Y-97869907D01*
X49663289Y-97974211D01*
X49767593Y-98059812D01*
X49886594Y-98123419D01*
X50015717Y-98162588D01*
X50116353Y-98172500D01*
X50150000Y-98175814D01*
X50183647Y-98172500D01*
X64116353Y-98172500D01*
X64150000Y-98175814D01*
X64183647Y-98172500D01*
X64284283Y-98162588D01*
X64413406Y-98123419D01*
X64532407Y-98059812D01*
X64636711Y-97974211D01*
X64722312Y-97869907D01*
X64785919Y-97750906D01*
X64825088Y-97621783D01*
X64838314Y-97487500D01*
X64835000Y-97453853D01*
X64835000Y-83521147D01*
X64836632Y-83504575D01*
X65190021Y-83740701D01*
X65760554Y-83977024D01*
X66366229Y-84097500D01*
X66983771Y-84097500D01*
X67589446Y-83977024D01*
X68159979Y-83740701D01*
X68513368Y-83504575D01*
X68515000Y-83521147D01*
X68515001Y-97453843D01*
X68511686Y-97487500D01*
X68524912Y-97621783D01*
X68564081Y-97750906D01*
X68627688Y-97869907D01*
X68713289Y-97974211D01*
X68817593Y-98059812D01*
X68936594Y-98123419D01*
X69065717Y-98162588D01*
X69166353Y-98172500D01*
X69200000Y-98175814D01*
X69233647Y-98172500D01*
X83166353Y-98172500D01*
X83200000Y-98175814D01*
X83233647Y-98172500D01*
X83334283Y-98162588D01*
X83463406Y-98123419D01*
X83582407Y-98059812D01*
X83686711Y-97974211D01*
X83772312Y-97869907D01*
X83835919Y-97750906D01*
X83875088Y-97621783D01*
X83888314Y-97487500D01*
X83885000Y-97453853D01*
X83885000Y-83521147D01*
X83888314Y-83487500D01*
X87561686Y-83487500D01*
X87565000Y-83521147D01*
X87565001Y-97453843D01*
X87561686Y-97487500D01*
X87574912Y-97621783D01*
X87614081Y-97750906D01*
X87677688Y-97869907D01*
X87763289Y-97974211D01*
X87867593Y-98059812D01*
X87986594Y-98123419D01*
X88115717Y-98162588D01*
X88216353Y-98172500D01*
X88250000Y-98175814D01*
X88283647Y-98172500D01*
X102216353Y-98172500D01*
X102250000Y-98175814D01*
X102283647Y-98172500D01*
X102384283Y-98162588D01*
X102513406Y-98123419D01*
X102632407Y-98059812D01*
X102736711Y-97974211D01*
X102822312Y-97869907D01*
X102885919Y-97750906D01*
X102925088Y-97621783D01*
X102938314Y-97487500D01*
X102935000Y-97453853D01*
X102935000Y-83521147D01*
X102938314Y-83487500D01*
X102925088Y-83353217D01*
X102885919Y-83224094D01*
X102822312Y-83105093D01*
X102736711Y-83000789D01*
X102632407Y-82915188D01*
X102513406Y-82851581D01*
X102384283Y-82812412D01*
X102283647Y-82802500D01*
X102250000Y-82799186D01*
X102216353Y-82802500D01*
X88283647Y-82802500D01*
X88250000Y-82799186D01*
X88216353Y-82802500D01*
X88115717Y-82812412D01*
X87986594Y-82851581D01*
X87867593Y-82915188D01*
X87763289Y-83000789D01*
X87677688Y-83105093D01*
X87614081Y-83224094D01*
X87574912Y-83353217D01*
X87561686Y-83487500D01*
X83888314Y-83487500D01*
X83875088Y-83353217D01*
X83835919Y-83224094D01*
X83772312Y-83105093D01*
X83686711Y-83000789D01*
X83582407Y-82915188D01*
X83463406Y-82851581D01*
X83334283Y-82812412D01*
X83233647Y-82802500D01*
X83200000Y-82799186D01*
X83166353Y-82802500D01*
X69233647Y-82802500D01*
X69217075Y-82800868D01*
X69453201Y-82447479D01*
X69689524Y-81876946D01*
X69810000Y-81271271D01*
X69810000Y-80653729D01*
X69689524Y-80048054D01*
X69453201Y-79477521D01*
X69217075Y-79124132D01*
X69233647Y-79122500D01*
X83166353Y-79122500D01*
X83200000Y-79125814D01*
X83233647Y-79122500D01*
X83334283Y-79112588D01*
X83463406Y-79073419D01*
X83582407Y-79009812D01*
X83686711Y-78924211D01*
X83772312Y-78819907D01*
X83835919Y-78700906D01*
X83875088Y-78571783D01*
X83888314Y-78437500D01*
X83885000Y-78403853D01*
X83885000Y-64471147D01*
X83888314Y-64437500D01*
X87561686Y-64437500D01*
X87565000Y-64471147D01*
X87565001Y-78403843D01*
X87561686Y-78437500D01*
X87574912Y-78571783D01*
X87614081Y-78700906D01*
X87677688Y-78819907D01*
X87763289Y-78924211D01*
X87867593Y-79009812D01*
X87986594Y-79073419D01*
X88115717Y-79112588D01*
X88216353Y-79122500D01*
X88250000Y-79125814D01*
X88283647Y-79122500D01*
X102216353Y-79122500D01*
X102250000Y-79125814D01*
X102283647Y-79122500D01*
X102384283Y-79112588D01*
X102513406Y-79073419D01*
X102632407Y-79009812D01*
X102736711Y-78924211D01*
X102822312Y-78819907D01*
X102885919Y-78700906D01*
X102925088Y-78571783D01*
X102938314Y-78437500D01*
X102935000Y-78403853D01*
X102935000Y-64471147D01*
X102938314Y-64437500D01*
X106611686Y-64437500D01*
X106615000Y-64471147D01*
X106615001Y-78403843D01*
X106611686Y-78437500D01*
X106624912Y-78571783D01*
X106664081Y-78700906D01*
X106727688Y-78819907D01*
X106813289Y-78924211D01*
X106917593Y-79009812D01*
X107036594Y-79073419D01*
X107165717Y-79112588D01*
X107266353Y-79122500D01*
X107300000Y-79125814D01*
X107333647Y-79122500D01*
X121266353Y-79122500D01*
X121282925Y-79124132D01*
X121046799Y-79477521D01*
X120810476Y-80048054D01*
X120690000Y-80653729D01*
X120690000Y-81271271D01*
X120810476Y-81876946D01*
X121046799Y-82447479D01*
X121282925Y-82800868D01*
X121266353Y-82802500D01*
X107333647Y-82802500D01*
X107300000Y-82799186D01*
X107266353Y-82802500D01*
X107165717Y-82812412D01*
X107036594Y-82851581D01*
X106917593Y-82915188D01*
X106813289Y-83000789D01*
X106727688Y-83105093D01*
X106664081Y-83224094D01*
X106624912Y-83353217D01*
X106611686Y-83487500D01*
X106615000Y-83521147D01*
X106615001Y-97453843D01*
X106611686Y-97487500D01*
X106624912Y-97621783D01*
X106664081Y-97750906D01*
X106727688Y-97869907D01*
X106813289Y-97974211D01*
X106917593Y-98059812D01*
X107036594Y-98123419D01*
X107165717Y-98162588D01*
X107266353Y-98172500D01*
X107300000Y-98175814D01*
X107333647Y-98172500D01*
X121266353Y-98172500D01*
X121300000Y-98175814D01*
X121333647Y-98172500D01*
X121434283Y-98162588D01*
X121563406Y-98123419D01*
X121682407Y-98059812D01*
X121786711Y-97974211D01*
X121872312Y-97869907D01*
X121935919Y-97750906D01*
X121975088Y-97621783D01*
X121988314Y-97487500D01*
X121985000Y-97453853D01*
X121985000Y-83521147D01*
X121986632Y-83504575D01*
X122340021Y-83740701D01*
X122910554Y-83977024D01*
X123516229Y-84097500D01*
X124133771Y-84097500D01*
X124739446Y-83977024D01*
X125309979Y-83740701D01*
X125663368Y-83504575D01*
X125665000Y-83521147D01*
X125665001Y-97453843D01*
X125661686Y-97487500D01*
X125674912Y-97621783D01*
X125714081Y-97750906D01*
X125777688Y-97869907D01*
X125863289Y-97974211D01*
X125967593Y-98059812D01*
X126086594Y-98123419D01*
X126215717Y-98162588D01*
X126316353Y-98172500D01*
X126350000Y-98175814D01*
X126383647Y-98172500D01*
X140316353Y-98172500D01*
X140350000Y-98175814D01*
X140383647Y-98172500D01*
X140484283Y-98162588D01*
X140613406Y-98123419D01*
X140732407Y-98059812D01*
X140836711Y-97974211D01*
X140922312Y-97869907D01*
X140985919Y-97750906D01*
X141025088Y-97621783D01*
X141038314Y-97487500D01*
X141035000Y-97453853D01*
X141035000Y-83521147D01*
X141038314Y-83487500D01*
X141025088Y-83353217D01*
X140985919Y-83224094D01*
X140922312Y-83105093D01*
X140836711Y-83000789D01*
X140732407Y-82915188D01*
X140613406Y-82851581D01*
X140484283Y-82812412D01*
X140383647Y-82802500D01*
X140350000Y-82799186D01*
X140316353Y-82802500D01*
X126383647Y-82802500D01*
X126367075Y-82800868D01*
X126603201Y-82447479D01*
X126839524Y-81876946D01*
X126920403Y-81470339D01*
X127050463Y-81784331D01*
X127240337Y-82068498D01*
X127482002Y-82310163D01*
X127766169Y-82500037D01*
X128081919Y-82630825D01*
X128417117Y-82697500D01*
X128758883Y-82697500D01*
X129094081Y-82630825D01*
X129409831Y-82500037D01*
X129693998Y-82310163D01*
X129935663Y-82068498D01*
X130125537Y-81784331D01*
X130256325Y-81468581D01*
X130323000Y-81133383D01*
X130323000Y-80791617D01*
X130256325Y-80456419D01*
X130125537Y-80140669D01*
X129935663Y-79856502D01*
X129693998Y-79614837D01*
X129409831Y-79424963D01*
X129094081Y-79294175D01*
X128758883Y-79227500D01*
X128417117Y-79227500D01*
X128081919Y-79294175D01*
X127766169Y-79424963D01*
X127482002Y-79614837D01*
X127240337Y-79856502D01*
X127050463Y-80140669D01*
X126920403Y-80454661D01*
X126839524Y-80048054D01*
X126603201Y-79477521D01*
X126367075Y-79124132D01*
X126383647Y-79122500D01*
X140316353Y-79122500D01*
X140350000Y-79125814D01*
X140383647Y-79122500D01*
X140484283Y-79112588D01*
X140613406Y-79073419D01*
X140732407Y-79009812D01*
X140836711Y-78924211D01*
X140922312Y-78819907D01*
X140985919Y-78700906D01*
X141025088Y-78571783D01*
X141038314Y-78437500D01*
X141035000Y-78403853D01*
X141035000Y-64471147D01*
X141038314Y-64437500D01*
X141025088Y-64303217D01*
X140985919Y-64174094D01*
X140922312Y-64055093D01*
X140836711Y-63950789D01*
X140732407Y-63865188D01*
X140613406Y-63801581D01*
X140484283Y-63762412D01*
X140383647Y-63752500D01*
X140350000Y-63749186D01*
X140316353Y-63752500D01*
X126383647Y-63752500D01*
X126350000Y-63749186D01*
X126316353Y-63752500D01*
X126215717Y-63762412D01*
X126086594Y-63801581D01*
X125967593Y-63865188D01*
X125863289Y-63950789D01*
X125777688Y-64055093D01*
X125714081Y-64174094D01*
X125674912Y-64303217D01*
X125661686Y-64437500D01*
X125665000Y-64471147D01*
X125665001Y-78403843D01*
X125663368Y-78420425D01*
X125309979Y-78184299D01*
X124739446Y-77947976D01*
X124133771Y-77827500D01*
X123516229Y-77827500D01*
X122910554Y-77947976D01*
X122340021Y-78184299D01*
X121986632Y-78420425D01*
X121985000Y-78403853D01*
X121985000Y-64471147D01*
X121988314Y-64437500D01*
X121975088Y-64303217D01*
X121935919Y-64174094D01*
X121872312Y-64055093D01*
X121786711Y-63950789D01*
X121682407Y-63865188D01*
X121563406Y-63801581D01*
X121434283Y-63762412D01*
X121333647Y-63752500D01*
X121300000Y-63749186D01*
X121266353Y-63752500D01*
X107333647Y-63752500D01*
X107300000Y-63749186D01*
X107266353Y-63752500D01*
X107165717Y-63762412D01*
X107036594Y-63801581D01*
X106917593Y-63865188D01*
X106813289Y-63950789D01*
X106727688Y-64055093D01*
X106664081Y-64174094D01*
X106624912Y-64303217D01*
X106611686Y-64437500D01*
X102938314Y-64437500D01*
X102925088Y-64303217D01*
X102885919Y-64174094D01*
X102822312Y-64055093D01*
X102736711Y-63950789D01*
X102632407Y-63865188D01*
X102513406Y-63801581D01*
X102384283Y-63762412D01*
X102283647Y-63752500D01*
X102250000Y-63749186D01*
X102216353Y-63752500D01*
X88283647Y-63752500D01*
X88250000Y-63749186D01*
X88216353Y-63752500D01*
X88115717Y-63762412D01*
X87986594Y-63801581D01*
X87867593Y-63865188D01*
X87763289Y-63950789D01*
X87677688Y-64055093D01*
X87614081Y-64174094D01*
X87574912Y-64303217D01*
X87561686Y-64437500D01*
X83888314Y-64437500D01*
X83875088Y-64303217D01*
X83835919Y-64174094D01*
X83772312Y-64055093D01*
X83686711Y-63950789D01*
X83582407Y-63865188D01*
X83463406Y-63801581D01*
X83334283Y-63762412D01*
X83233647Y-63752500D01*
X83200000Y-63749186D01*
X83166353Y-63752500D01*
X69233647Y-63752500D01*
X69200000Y-63749186D01*
X69166353Y-63752500D01*
X69065717Y-63762412D01*
X68936594Y-63801581D01*
X68817593Y-63865188D01*
X68713289Y-63950789D01*
X68627688Y-64055093D01*
X68564081Y-64174094D01*
X68524912Y-64303217D01*
X68511686Y-64437500D01*
X68515000Y-64471147D01*
X68515001Y-78403843D01*
X68513368Y-78420425D01*
X68159979Y-78184299D01*
X67589446Y-77947976D01*
X66983771Y-77827500D01*
X66366229Y-77827500D01*
X65760554Y-77947976D01*
X65190021Y-78184299D01*
X64836632Y-78420425D01*
X64835000Y-78403853D01*
X64835000Y-64471147D01*
X64838314Y-64437500D01*
X64825088Y-64303217D01*
X64785919Y-64174094D01*
X64722312Y-64055093D01*
X64636711Y-63950789D01*
X64532407Y-63865188D01*
X64413406Y-63801581D01*
X64284283Y-63762412D01*
X64183647Y-63752500D01*
X64150000Y-63749186D01*
X64116353Y-63752500D01*
X50183647Y-63752500D01*
X50150000Y-63749186D01*
X50116353Y-63752500D01*
X50015717Y-63762412D01*
X49886594Y-63801581D01*
X49767593Y-63865188D01*
X49663289Y-63950789D01*
X49577688Y-64055093D01*
X49514081Y-64174094D01*
X49474912Y-64303217D01*
X49461686Y-64437500D01*
X48360000Y-64437500D01*
X48360000Y-45387500D01*
X49461686Y-45387500D01*
X49465000Y-45421147D01*
X49465001Y-59353843D01*
X49461686Y-59387500D01*
X49474912Y-59521783D01*
X49514081Y-59650906D01*
X49577688Y-59769907D01*
X49663289Y-59874211D01*
X49767593Y-59959812D01*
X49886594Y-60023419D01*
X50015717Y-60062588D01*
X50116353Y-60072500D01*
X50150000Y-60075814D01*
X50183647Y-60072500D01*
X64116353Y-60072500D01*
X64150000Y-60075814D01*
X64183647Y-60072500D01*
X64284283Y-60062588D01*
X64413406Y-60023419D01*
X64532407Y-59959812D01*
X64636711Y-59874211D01*
X64722312Y-59769907D01*
X64785919Y-59650906D01*
X64825088Y-59521783D01*
X64838314Y-59387500D01*
X64835000Y-59353853D01*
X64835000Y-45421147D01*
X64838314Y-45387500D01*
X68511686Y-45387500D01*
X68515000Y-45421147D01*
X68515001Y-59353843D01*
X68511686Y-59387500D01*
X68524912Y-59521783D01*
X68564081Y-59650906D01*
X68627688Y-59769907D01*
X68713289Y-59874211D01*
X68817593Y-59959812D01*
X68936594Y-60023419D01*
X69065717Y-60062588D01*
X69166353Y-60072500D01*
X69200000Y-60075814D01*
X69233647Y-60072500D01*
X83166353Y-60072500D01*
X83200000Y-60075814D01*
X83233647Y-60072500D01*
X83334283Y-60062588D01*
X83463406Y-60023419D01*
X83582407Y-59959812D01*
X83686711Y-59874211D01*
X83772312Y-59769907D01*
X83835919Y-59650906D01*
X83875088Y-59521783D01*
X83888314Y-59387500D01*
X83885000Y-59353853D01*
X83885000Y-45421147D01*
X83888314Y-45387500D01*
X87561686Y-45387500D01*
X87565000Y-45421147D01*
X87565001Y-59353843D01*
X87561686Y-59387500D01*
X87574912Y-59521783D01*
X87614081Y-59650906D01*
X87677688Y-59769907D01*
X87763289Y-59874211D01*
X87867593Y-59959812D01*
X87986594Y-60023419D01*
X88115717Y-60062588D01*
X88216353Y-60072500D01*
X88250000Y-60075814D01*
X88283647Y-60072500D01*
X102216353Y-60072500D01*
X102250000Y-60075814D01*
X102283647Y-60072500D01*
X102384283Y-60062588D01*
X102513406Y-60023419D01*
X102632407Y-59959812D01*
X102736711Y-59874211D01*
X102822312Y-59769907D01*
X102885919Y-59650906D01*
X102925088Y-59521783D01*
X102938314Y-59387500D01*
X102935000Y-59353853D01*
X102935000Y-45421147D01*
X102938314Y-45387500D01*
X106611686Y-45387500D01*
X106615000Y-45421147D01*
X106615001Y-59353843D01*
X106611686Y-59387500D01*
X106624912Y-59521783D01*
X106664081Y-59650906D01*
X106727688Y-59769907D01*
X106813289Y-59874211D01*
X106917593Y-59959812D01*
X107036594Y-60023419D01*
X107165717Y-60062588D01*
X107266353Y-60072500D01*
X107300000Y-60075814D01*
X107333647Y-60072500D01*
X121266353Y-60072500D01*
X121300000Y-60075814D01*
X121333647Y-60072500D01*
X121434283Y-60062588D01*
X121563406Y-60023419D01*
X121682407Y-59959812D01*
X121786711Y-59874211D01*
X121872312Y-59769907D01*
X121935919Y-59650906D01*
X121975088Y-59521783D01*
X121988314Y-59387500D01*
X121985000Y-59353853D01*
X121985000Y-45421147D01*
X121988314Y-45387500D01*
X125661686Y-45387500D01*
X125665000Y-45421147D01*
X125665001Y-59353843D01*
X125661686Y-59387500D01*
X125674912Y-59521783D01*
X125714081Y-59650906D01*
X125777688Y-59769907D01*
X125863289Y-59874211D01*
X125967593Y-59959812D01*
X126086594Y-60023419D01*
X126215717Y-60062588D01*
X126316353Y-60072500D01*
X126350000Y-60075814D01*
X126383647Y-60072500D01*
X140316353Y-60072500D01*
X140350000Y-60075814D01*
X140383647Y-60072500D01*
X140484283Y-60062588D01*
X140613406Y-60023419D01*
X140732407Y-59959812D01*
X140836711Y-59874211D01*
X140922312Y-59769907D01*
X140985919Y-59650906D01*
X141025088Y-59521783D01*
X141038314Y-59387500D01*
X141035000Y-59353853D01*
X141035000Y-45421147D01*
X141038314Y-45387500D01*
X141025088Y-45253217D01*
X140985919Y-45124094D01*
X140922312Y-45005093D01*
X140836711Y-44900789D01*
X140732407Y-44815188D01*
X140613406Y-44751581D01*
X140484283Y-44712412D01*
X140383647Y-44702500D01*
X140350000Y-44699186D01*
X140316353Y-44702500D01*
X126383647Y-44702500D01*
X126350000Y-44699186D01*
X126316353Y-44702500D01*
X126215717Y-44712412D01*
X126086594Y-44751581D01*
X125967593Y-44815188D01*
X125863289Y-44900789D01*
X125777688Y-45005093D01*
X125714081Y-45124094D01*
X125674912Y-45253217D01*
X125661686Y-45387500D01*
X121988314Y-45387500D01*
X121975088Y-45253217D01*
X121935919Y-45124094D01*
X121872312Y-45005093D01*
X121786711Y-44900789D01*
X121682407Y-44815188D01*
X121563406Y-44751581D01*
X121434283Y-44712412D01*
X121333647Y-44702500D01*
X121300000Y-44699186D01*
X121266353Y-44702500D01*
X107333647Y-44702500D01*
X107300000Y-44699186D01*
X107266353Y-44702500D01*
X107165717Y-44712412D01*
X107036594Y-44751581D01*
X106917593Y-44815188D01*
X106813289Y-44900789D01*
X106727688Y-45005093D01*
X106664081Y-45124094D01*
X106624912Y-45253217D01*
X106611686Y-45387500D01*
X102938314Y-45387500D01*
X102925088Y-45253217D01*
X102885919Y-45124094D01*
X102822312Y-45005093D01*
X102736711Y-44900789D01*
X102632407Y-44815188D01*
X102513406Y-44751581D01*
X102384283Y-44712412D01*
X102283647Y-44702500D01*
X102250000Y-44699186D01*
X102216353Y-44702500D01*
X88283647Y-44702500D01*
X88250000Y-44699186D01*
X88216353Y-44702500D01*
X88115717Y-44712412D01*
X87986594Y-44751581D01*
X87867593Y-44815188D01*
X87763289Y-44900789D01*
X87677688Y-45005093D01*
X87614081Y-45124094D01*
X87574912Y-45253217D01*
X87561686Y-45387500D01*
X83888314Y-45387500D01*
X83875088Y-45253217D01*
X83835919Y-45124094D01*
X83772312Y-45005093D01*
X83686711Y-44900789D01*
X83582407Y-44815188D01*
X83463406Y-44751581D01*
X83334283Y-44712412D01*
X83233647Y-44702500D01*
X83200000Y-44699186D01*
X83166353Y-44702500D01*
X69233647Y-44702500D01*
X69200000Y-44699186D01*
X69166353Y-44702500D01*
X69065717Y-44712412D01*
X68936594Y-44751581D01*
X68817593Y-44815188D01*
X68713289Y-44900789D01*
X68627688Y-45005093D01*
X68564081Y-45124094D01*
X68524912Y-45253217D01*
X68511686Y-45387500D01*
X64838314Y-45387500D01*
X64825088Y-45253217D01*
X64785919Y-45124094D01*
X64722312Y-45005093D01*
X64636711Y-44900789D01*
X64532407Y-44815188D01*
X64413406Y-44751581D01*
X64284283Y-44712412D01*
X64183647Y-44702500D01*
X64150000Y-44699186D01*
X64116353Y-44702500D01*
X50183647Y-44702500D01*
X50150000Y-44699186D01*
X50116353Y-44702500D01*
X50015717Y-44712412D01*
X49886594Y-44751581D01*
X49767593Y-44815188D01*
X49663289Y-44900789D01*
X49577688Y-45005093D01*
X49514081Y-45124094D01*
X49474912Y-45253217D01*
X49461686Y-45387500D01*
X48360000Y-45387500D01*
X48360000Y-42691617D01*
X64940000Y-42691617D01*
X64940000Y-43033383D01*
X65006675Y-43368581D01*
X65137463Y-43684331D01*
X65327337Y-43968498D01*
X65569002Y-44210163D01*
X65853169Y-44400037D01*
X66168919Y-44530825D01*
X66504117Y-44597500D01*
X66845883Y-44597500D01*
X67181081Y-44530825D01*
X67496831Y-44400037D01*
X67780998Y-44210163D01*
X68022663Y-43968498D01*
X68212537Y-43684331D01*
X68343325Y-43368581D01*
X68410000Y-43033383D01*
X68410000Y-42691617D01*
X122090000Y-42691617D01*
X122090000Y-43033383D01*
X122156675Y-43368581D01*
X122287463Y-43684331D01*
X122477337Y-43968498D01*
X122719002Y-44210163D01*
X123003169Y-44400037D01*
X123318919Y-44530825D01*
X123654117Y-44597500D01*
X123995883Y-44597500D01*
X124331081Y-44530825D01*
X124646831Y-44400037D01*
X124930998Y-44210163D01*
X125172663Y-43968498D01*
X125362537Y-43684331D01*
X125493325Y-43368581D01*
X125560000Y-43033383D01*
X125560000Y-42691617D01*
X125493325Y-42356419D01*
X125362537Y-42040669D01*
X125172663Y-41756502D01*
X124930998Y-41514837D01*
X124646831Y-41324963D01*
X124331081Y-41194175D01*
X123995883Y-41127500D01*
X123654117Y-41127500D01*
X123318919Y-41194175D01*
X123003169Y-41324963D01*
X122719002Y-41514837D01*
X122477337Y-41756502D01*
X122287463Y-42040669D01*
X122156675Y-42356419D01*
X122090000Y-42691617D01*
X68410000Y-42691617D01*
X68343325Y-42356419D01*
X68212537Y-42040669D01*
X68022663Y-41756502D01*
X67780998Y-41514837D01*
X67496831Y-41324963D01*
X67181081Y-41194175D01*
X66845883Y-41127500D01*
X66504117Y-41127500D01*
X66168919Y-41194175D01*
X65853169Y-41324963D01*
X65569002Y-41514837D01*
X65327337Y-41756502D01*
X65137463Y-42040669D01*
X65006675Y-42356419D01*
X64940000Y-42691617D01*
X48360000Y-42691617D01*
X48360000Y-28538895D01*
X48350330Y-28440713D01*
X48405800Y-27837035D01*
X48606956Y-27123790D01*
X48934728Y-26459134D01*
X49378128Y-25865350D01*
X49922318Y-25362307D01*
X50549060Y-24966861D01*
X51237379Y-24692250D01*
X51977973Y-24544936D01*
X52406092Y-24522500D01*
X63506193Y-24522500D01*
X63510808Y-24545809D01*
X63510808Y-24545809D01*
G37*
X63510808Y-24545809D02*
X63513740Y-24555279D01*
X63663631Y-25027794D01*
X63688962Y-25086896D01*
X63713503Y-25146437D01*
X63718218Y-25155158D01*
X63957035Y-25589562D01*
X63993385Y-25642649D01*
X63999930Y-25652500D01*
X50183647Y-25652500D01*
X50150000Y-25649186D01*
X50116353Y-25652500D01*
X50015717Y-25662412D01*
X49886594Y-25701581D01*
X49767593Y-25765188D01*
X49663289Y-25850789D01*
X49577688Y-25955093D01*
X49514081Y-26074094D01*
X49474912Y-26203217D01*
X49461686Y-26337500D01*
X49465000Y-26371147D01*
X49465001Y-40303843D01*
X49461686Y-40337500D01*
X49474912Y-40471783D01*
X49514081Y-40600906D01*
X49577688Y-40719907D01*
X49663289Y-40824211D01*
X49767593Y-40909812D01*
X49886594Y-40973419D01*
X50015717Y-41012588D01*
X50116353Y-41022500D01*
X50150000Y-41025814D01*
X50183647Y-41022500D01*
X64116353Y-41022500D01*
X64150000Y-41025814D01*
X64183647Y-41022500D01*
X64284283Y-41012588D01*
X64413406Y-40973419D01*
X64532407Y-40909812D01*
X64636711Y-40824211D01*
X64722312Y-40719907D01*
X64785919Y-40600906D01*
X64825088Y-40471783D01*
X64838314Y-40337500D01*
X64835000Y-40303853D01*
X64835000Y-26487754D01*
X64839300Y-26491211D01*
X64893137Y-26526441D01*
X64946496Y-26562432D01*
X64955248Y-26567085D01*
X65394558Y-26796751D01*
X65454197Y-26820847D01*
X65513546Y-26845795D01*
X65523036Y-26848660D01*
X65998588Y-26988623D01*
X66061800Y-27000681D01*
X66124837Y-27013621D01*
X66134699Y-27014588D01*
X66134703Y-27014588D01*
X66628383Y-27059516D01*
X66692699Y-27059067D01*
X66757081Y-27059516D01*
X66766947Y-27058549D01*
X67259954Y-27006732D01*
X67322979Y-26993794D01*
X67386201Y-26981734D01*
X67395691Y-26978869D01*
X67869243Y-26832279D01*
X67928498Y-26807371D01*
X67988231Y-26783237D01*
X67996983Y-26778582D01*
X68433044Y-26542805D01*
X68486361Y-26506842D01*
X68515000Y-26488101D01*
X68515001Y-40303843D01*
X68511686Y-40337500D01*
X68524912Y-40471783D01*
X68564081Y-40600906D01*
X68627688Y-40719907D01*
X68713289Y-40824211D01*
X68817593Y-40909812D01*
X68936594Y-40973419D01*
X69065717Y-41012588D01*
X69166353Y-41022500D01*
X69200000Y-41025814D01*
X69233647Y-41022500D01*
X83166353Y-41022500D01*
X83200000Y-41025814D01*
X83233647Y-41022500D01*
X83334283Y-41012588D01*
X83463406Y-40973419D01*
X83582407Y-40909812D01*
X83686711Y-40824211D01*
X83772312Y-40719907D01*
X83835919Y-40600906D01*
X83875088Y-40471783D01*
X83888314Y-40337500D01*
X83885000Y-40303853D01*
X83885000Y-26371147D01*
X83888314Y-26337500D01*
X87561686Y-26337500D01*
X87565000Y-26371147D01*
X87565001Y-40303843D01*
X87561686Y-40337500D01*
X87574912Y-40471783D01*
X87614081Y-40600906D01*
X87677688Y-40719907D01*
X87763289Y-40824211D01*
X87867593Y-40909812D01*
X87986594Y-40973419D01*
X88115717Y-41012588D01*
X88216353Y-41022500D01*
X88250000Y-41025814D01*
X88283647Y-41022500D01*
X102216353Y-41022500D01*
X102250000Y-41025814D01*
X102283647Y-41022500D01*
X102384283Y-41012588D01*
X102513406Y-40973419D01*
X102632407Y-40909812D01*
X102736711Y-40824211D01*
X102822312Y-40719907D01*
X102885919Y-40600906D01*
X102925088Y-40471783D01*
X102938314Y-40337500D01*
X102935000Y-40303853D01*
X102935000Y-26371147D01*
X102938314Y-26337500D01*
X102925088Y-26203217D01*
X102885919Y-26074094D01*
X102822312Y-25955093D01*
X102736711Y-25850789D01*
X102632407Y-25765188D01*
X102513406Y-25701581D01*
X102384283Y-25662412D01*
X102283647Y-25652500D01*
X102250000Y-25649186D01*
X102216353Y-25652500D01*
X88283647Y-25652500D01*
X88250000Y-25649186D01*
X88216353Y-25652500D01*
X88115717Y-25662412D01*
X87986594Y-25701581D01*
X87867593Y-25765188D01*
X87763289Y-25850789D01*
X87677688Y-25955093D01*
X87614081Y-26074094D01*
X87574912Y-26203217D01*
X87561686Y-26337500D01*
X83888314Y-26337500D01*
X83875088Y-26203217D01*
X83835919Y-26074094D01*
X83772312Y-25955093D01*
X83686711Y-25850789D01*
X83582407Y-25765188D01*
X83463406Y-25701581D01*
X83334283Y-25662412D01*
X83233647Y-25652500D01*
X83200000Y-25649186D01*
X83166353Y-25652500D01*
X69350369Y-25652500D01*
X69376449Y-25613247D01*
X69412798Y-25560160D01*
X69417513Y-25551440D01*
X69650240Y-25113744D01*
X69674756Y-25054264D01*
X69700113Y-24995101D01*
X69703044Y-24985631D01*
X69842871Y-24522500D01*
X120656193Y-24522500D01*
X120660808Y-24545809D01*
X120663740Y-24555279D01*
X120813631Y-25027794D01*
X120838962Y-25086896D01*
X120863503Y-25146437D01*
X120868218Y-25155158D01*
X121107035Y-25589562D01*
X121143385Y-25642649D01*
X121149930Y-25652500D01*
X107333647Y-25652500D01*
X107300000Y-25649186D01*
X107266353Y-25652500D01*
X107165717Y-25662412D01*
X107036594Y-25701581D01*
X106917593Y-25765188D01*
X106813289Y-25850789D01*
X106727688Y-25955093D01*
X106664081Y-26074094D01*
X106624912Y-26203217D01*
X106611686Y-26337500D01*
X106615000Y-26371147D01*
X106615001Y-40303843D01*
X106611686Y-40337500D01*
X106624912Y-40471783D01*
X106664081Y-40600906D01*
X106727688Y-40719907D01*
X106813289Y-40824211D01*
X106917593Y-40909812D01*
X107036594Y-40973419D01*
X107165717Y-41012588D01*
X107266353Y-41022500D01*
X107300000Y-41025814D01*
X107333647Y-41022500D01*
X121266353Y-41022500D01*
X121300000Y-41025814D01*
X121333647Y-41022500D01*
X121434283Y-41012588D01*
X121563406Y-40973419D01*
X121682407Y-40909812D01*
X121786711Y-40824211D01*
X121872312Y-40719907D01*
X121935919Y-40600906D01*
X121975088Y-40471783D01*
X121988314Y-40337500D01*
X121985000Y-40303853D01*
X121985000Y-26487754D01*
X121989300Y-26491211D01*
X122043137Y-26526441D01*
X122096496Y-26562432D01*
X122105248Y-26567085D01*
X122544558Y-26796751D01*
X122604197Y-26820847D01*
X122663546Y-26845795D01*
X122673036Y-26848660D01*
X123148588Y-26988623D01*
X123211800Y-27000681D01*
X123274837Y-27013621D01*
X123284699Y-27014588D01*
X123284703Y-27014588D01*
X123778383Y-27059516D01*
X123842699Y-27059067D01*
X123907081Y-27059516D01*
X123916947Y-27058549D01*
X124409954Y-27006732D01*
X124472979Y-26993794D01*
X124536201Y-26981734D01*
X124545691Y-26978869D01*
X125019243Y-26832279D01*
X125078498Y-26807371D01*
X125138231Y-26783237D01*
X125146983Y-26778582D01*
X125583044Y-26542805D01*
X125636361Y-26506842D01*
X125665000Y-26488101D01*
X125665001Y-40303843D01*
X125661686Y-40337500D01*
X125674912Y-40471783D01*
X125714081Y-40600906D01*
X125777688Y-40719907D01*
X125863289Y-40824211D01*
X125967593Y-40909812D01*
X126086594Y-40973419D01*
X126215717Y-41012588D01*
X126316353Y-41022500D01*
X126350000Y-41025814D01*
X126383647Y-41022500D01*
X140316353Y-41022500D01*
X140350000Y-41025814D01*
X140383647Y-41022500D01*
X140484283Y-41012588D01*
X140613406Y-40973419D01*
X140732407Y-40909812D01*
X140836711Y-40824211D01*
X140922312Y-40719907D01*
X140985919Y-40600906D01*
X141025088Y-40471783D01*
X141038314Y-40337500D01*
X141035000Y-40303853D01*
X141035000Y-26371147D01*
X141038314Y-26337500D01*
X141025088Y-26203217D01*
X140985919Y-26074094D01*
X140922312Y-25955093D01*
X140836711Y-25850789D01*
X140732407Y-25765188D01*
X140613406Y-25701581D01*
X140484283Y-25662412D01*
X140383647Y-25652500D01*
X140350000Y-25649186D01*
X140316353Y-25652500D01*
X126500369Y-25652500D01*
X126526449Y-25613247D01*
X126562798Y-25560160D01*
X126567513Y-25551440D01*
X126800240Y-25113744D01*
X126824756Y-25054264D01*
X126850113Y-24995101D01*
X126853044Y-24985631D01*
X126992871Y-24522500D01*
X138079953Y-24522500D01*
X138850465Y-24593300D01*
X139563710Y-24794456D01*
X140228366Y-25122228D01*
X140822150Y-25565628D01*
X141325193Y-26109818D01*
X141720639Y-26736560D01*
X141995250Y-27424879D01*
X142142564Y-28165473D01*
X142155615Y-28414503D01*
X142150636Y-28430915D01*
X142140001Y-28538895D01*
X142140000Y-95286104D01*
X142149670Y-95384287D01*
X142094200Y-95987965D01*
X141893044Y-96701210D01*
X141565272Y-97365866D01*
X141121872Y-97959651D01*
X140577685Y-98462691D01*
X139950940Y-98858139D01*
X139262625Y-99132748D01*
X138522026Y-99280064D01*
X138273000Y-99293114D01*
X138256585Y-99288135D01*
X138148605Y-99277500D01*
X52351395Y-99277500D01*
X52253212Y-99287170D01*
X51649535Y-99231700D01*
X50936290Y-99030544D01*
X50271634Y-98702772D01*
X49677849Y-98259372D01*
X49174809Y-97715185D01*
X48779361Y-97088440D01*
X48504752Y-96400125D01*
X48357436Y-95659526D01*
X48344386Y-95410500D01*
X48349365Y-95394085D01*
X48360000Y-95286105D01*
X48360000Y-64437500D01*
X49461686Y-64437500D01*
X49465000Y-64471147D01*
X49465001Y-78403843D01*
X49461686Y-78437500D01*
X49474912Y-78571783D01*
X49514081Y-78700906D01*
X49577688Y-78819907D01*
X49663289Y-78924211D01*
X49767593Y-79009812D01*
X49886594Y-79073419D01*
X50015717Y-79112588D01*
X50116353Y-79122500D01*
X50150000Y-79125814D01*
X50183647Y-79122500D01*
X64116353Y-79122500D01*
X64132925Y-79124132D01*
X63896799Y-79477521D01*
X63660476Y-80048054D01*
X63579597Y-80454661D01*
X63449537Y-80140669D01*
X63259663Y-79856502D01*
X63017998Y-79614837D01*
X62733831Y-79424963D01*
X62418081Y-79294175D01*
X62082883Y-79227500D01*
X61741117Y-79227500D01*
X61405919Y-79294175D01*
X61090169Y-79424963D01*
X60806002Y-79614837D01*
X60564337Y-79856502D01*
X60374463Y-80140669D01*
X60243675Y-80456419D01*
X60177000Y-80791617D01*
X60177000Y-81133383D01*
X60243675Y-81468581D01*
X60374463Y-81784331D01*
X60564337Y-82068498D01*
X60806002Y-82310163D01*
X61090169Y-82500037D01*
X61405919Y-82630825D01*
X61741117Y-82697500D01*
X62082883Y-82697500D01*
X62418081Y-82630825D01*
X62733831Y-82500037D01*
X63017998Y-82310163D01*
X63259663Y-82068498D01*
X63449537Y-81784331D01*
X63579597Y-81470339D01*
X63660476Y-81876946D01*
X63896799Y-82447479D01*
X64132925Y-82800868D01*
X64116353Y-82802500D01*
X50183647Y-82802500D01*
X50150000Y-82799186D01*
X50116353Y-82802500D01*
X50015717Y-82812412D01*
X49886594Y-82851581D01*
X49767593Y-82915188D01*
X49663289Y-83000789D01*
X49577688Y-83105093D01*
X49514081Y-83224094D01*
X49474912Y-83353217D01*
X49461686Y-83487500D01*
X49465000Y-83521147D01*
X49465001Y-97453843D01*
X49461686Y-97487500D01*
X49474912Y-97621783D01*
X49514081Y-97750906D01*
X49577688Y-97869907D01*
X49663289Y-97974211D01*
X49767593Y-98059812D01*
X49886594Y-98123419D01*
X50015717Y-98162588D01*
X50116353Y-98172500D01*
X50150000Y-98175814D01*
X50183647Y-98172500D01*
X64116353Y-98172500D01*
X64150000Y-98175814D01*
X64183647Y-98172500D01*
X64284283Y-98162588D01*
X64413406Y-98123419D01*
X64532407Y-98059812D01*
X64636711Y-97974211D01*
X64722312Y-97869907D01*
X64785919Y-97750906D01*
X64825088Y-97621783D01*
X64838314Y-97487500D01*
X64835000Y-97453853D01*
X64835000Y-83521147D01*
X64836632Y-83504575D01*
X65190021Y-83740701D01*
X65760554Y-83977024D01*
X66366229Y-84097500D01*
X66983771Y-84097500D01*
X67589446Y-83977024D01*
X68159979Y-83740701D01*
X68513368Y-83504575D01*
X68515000Y-83521147D01*
X68515001Y-97453843D01*
X68511686Y-97487500D01*
X68524912Y-97621783D01*
X68564081Y-97750906D01*
X68627688Y-97869907D01*
X68713289Y-97974211D01*
X68817593Y-98059812D01*
X68936594Y-98123419D01*
X69065717Y-98162588D01*
X69166353Y-98172500D01*
X69200000Y-98175814D01*
X69233647Y-98172500D01*
X83166353Y-98172500D01*
X83200000Y-98175814D01*
X83233647Y-98172500D01*
X83334283Y-98162588D01*
X83463406Y-98123419D01*
X83582407Y-98059812D01*
X83686711Y-97974211D01*
X83772312Y-97869907D01*
X83835919Y-97750906D01*
X83875088Y-97621783D01*
X83888314Y-97487500D01*
X83885000Y-97453853D01*
X83885000Y-83521147D01*
X83888314Y-83487500D01*
X87561686Y-83487500D01*
X87565000Y-83521147D01*
X87565001Y-97453843D01*
X87561686Y-97487500D01*
X87574912Y-97621783D01*
X87614081Y-97750906D01*
X87677688Y-97869907D01*
X87763289Y-97974211D01*
X87867593Y-98059812D01*
X87986594Y-98123419D01*
X88115717Y-98162588D01*
X88216353Y-98172500D01*
X88250000Y-98175814D01*
X88283647Y-98172500D01*
X102216353Y-98172500D01*
X102250000Y-98175814D01*
X102283647Y-98172500D01*
X102384283Y-98162588D01*
X102513406Y-98123419D01*
X102632407Y-98059812D01*
X102736711Y-97974211D01*
X102822312Y-97869907D01*
X102885919Y-97750906D01*
X102925088Y-97621783D01*
X102938314Y-97487500D01*
X102935000Y-97453853D01*
X102935000Y-83521147D01*
X102938314Y-83487500D01*
X102925088Y-83353217D01*
X102885919Y-83224094D01*
X102822312Y-83105093D01*
X102736711Y-83000789D01*
X102632407Y-82915188D01*
X102513406Y-82851581D01*
X102384283Y-82812412D01*
X102283647Y-82802500D01*
X102250000Y-82799186D01*
X102216353Y-82802500D01*
X88283647Y-82802500D01*
X88250000Y-82799186D01*
X88216353Y-82802500D01*
X88115717Y-82812412D01*
X87986594Y-82851581D01*
X87867593Y-82915188D01*
X87763289Y-83000789D01*
X87677688Y-83105093D01*
X87614081Y-83224094D01*
X87574912Y-83353217D01*
X87561686Y-83487500D01*
X83888314Y-83487500D01*
X83875088Y-83353217D01*
X83835919Y-83224094D01*
X83772312Y-83105093D01*
X83686711Y-83000789D01*
X83582407Y-82915188D01*
X83463406Y-82851581D01*
X83334283Y-82812412D01*
X83233647Y-82802500D01*
X83200000Y-82799186D01*
X83166353Y-82802500D01*
X69233647Y-82802500D01*
X69217075Y-82800868D01*
X69453201Y-82447479D01*
X69689524Y-81876946D01*
X69810000Y-81271271D01*
X69810000Y-80653729D01*
X69689524Y-80048054D01*
X69453201Y-79477521D01*
X69217075Y-79124132D01*
X69233647Y-79122500D01*
X83166353Y-79122500D01*
X83200000Y-79125814D01*
X83233647Y-79122500D01*
X83334283Y-79112588D01*
X83463406Y-79073419D01*
X83582407Y-79009812D01*
X83686711Y-78924211D01*
X83772312Y-78819907D01*
X83835919Y-78700906D01*
X83875088Y-78571783D01*
X83888314Y-78437500D01*
X83885000Y-78403853D01*
X83885000Y-64471147D01*
X83888314Y-64437500D01*
X87561686Y-64437500D01*
X87565000Y-64471147D01*
X87565001Y-78403843D01*
X87561686Y-78437500D01*
X87574912Y-78571783D01*
X87614081Y-78700906D01*
X87677688Y-78819907D01*
X87763289Y-78924211D01*
X87867593Y-79009812D01*
X87986594Y-79073419D01*
X88115717Y-79112588D01*
X88216353Y-79122500D01*
X88250000Y-79125814D01*
X88283647Y-79122500D01*
X102216353Y-79122500D01*
X102250000Y-79125814D01*
X102283647Y-79122500D01*
X102384283Y-79112588D01*
X102513406Y-79073419D01*
X102632407Y-79009812D01*
X102736711Y-78924211D01*
X102822312Y-78819907D01*
X102885919Y-78700906D01*
X102925088Y-78571783D01*
X102938314Y-78437500D01*
X102935000Y-78403853D01*
X102935000Y-64471147D01*
X102938314Y-64437500D01*
X106611686Y-64437500D01*
X106615000Y-64471147D01*
X106615001Y-78403843D01*
X106611686Y-78437500D01*
X106624912Y-78571783D01*
X106664081Y-78700906D01*
X106727688Y-78819907D01*
X106813289Y-78924211D01*
X106917593Y-79009812D01*
X107036594Y-79073419D01*
X107165717Y-79112588D01*
X107266353Y-79122500D01*
X107300000Y-79125814D01*
X107333647Y-79122500D01*
X121266353Y-79122500D01*
X121282925Y-79124132D01*
X121046799Y-79477521D01*
X120810476Y-80048054D01*
X120690000Y-80653729D01*
X120690000Y-81271271D01*
X120810476Y-81876946D01*
X121046799Y-82447479D01*
X121282925Y-82800868D01*
X121266353Y-82802500D01*
X107333647Y-82802500D01*
X107300000Y-82799186D01*
X107266353Y-82802500D01*
X107165717Y-82812412D01*
X107036594Y-82851581D01*
X106917593Y-82915188D01*
X106813289Y-83000789D01*
X106727688Y-83105093D01*
X106664081Y-83224094D01*
X106624912Y-83353217D01*
X106611686Y-83487500D01*
X106615000Y-83521147D01*
X106615001Y-97453843D01*
X106611686Y-97487500D01*
X106624912Y-97621783D01*
X106664081Y-97750906D01*
X106727688Y-97869907D01*
X106813289Y-97974211D01*
X106917593Y-98059812D01*
X107036594Y-98123419D01*
X107165717Y-98162588D01*
X107266353Y-98172500D01*
X107300000Y-98175814D01*
X107333647Y-98172500D01*
X121266353Y-98172500D01*
X121300000Y-98175814D01*
X121333647Y-98172500D01*
X121434283Y-98162588D01*
X121563406Y-98123419D01*
X121682407Y-98059812D01*
X121786711Y-97974211D01*
X121872312Y-97869907D01*
X121935919Y-97750906D01*
X121975088Y-97621783D01*
X121988314Y-97487500D01*
X121985000Y-97453853D01*
X121985000Y-83521147D01*
X121986632Y-83504575D01*
X122340021Y-83740701D01*
X122910554Y-83977024D01*
X123516229Y-84097500D01*
X124133771Y-84097500D01*
X124739446Y-83977024D01*
X125309979Y-83740701D01*
X125663368Y-83504575D01*
X125665000Y-83521147D01*
X125665001Y-97453843D01*
X125661686Y-97487500D01*
X125674912Y-97621783D01*
X125714081Y-97750906D01*
X125777688Y-97869907D01*
X125863289Y-97974211D01*
X125967593Y-98059812D01*
X126086594Y-98123419D01*
X126215717Y-98162588D01*
X126316353Y-98172500D01*
X126350000Y-98175814D01*
X126383647Y-98172500D01*
X140316353Y-98172500D01*
X140350000Y-98175814D01*
X140383647Y-98172500D01*
X140484283Y-98162588D01*
X140613406Y-98123419D01*
X140732407Y-98059812D01*
X140836711Y-97974211D01*
X140922312Y-97869907D01*
X140985919Y-97750906D01*
X141025088Y-97621783D01*
X141038314Y-97487500D01*
X141035000Y-97453853D01*
X141035000Y-83521147D01*
X141038314Y-83487500D01*
X141025088Y-83353217D01*
X140985919Y-83224094D01*
X140922312Y-83105093D01*
X140836711Y-83000789D01*
X140732407Y-82915188D01*
X140613406Y-82851581D01*
X140484283Y-82812412D01*
X140383647Y-82802500D01*
X140350000Y-82799186D01*
X140316353Y-82802500D01*
X126383647Y-82802500D01*
X126367075Y-82800868D01*
X126603201Y-82447479D01*
X126839524Y-81876946D01*
X126920403Y-81470339D01*
X127050463Y-81784331D01*
X127240337Y-82068498D01*
X127482002Y-82310163D01*
X127766169Y-82500037D01*
X128081919Y-82630825D01*
X128417117Y-82697500D01*
X128758883Y-82697500D01*
X129094081Y-82630825D01*
X129409831Y-82500037D01*
X129693998Y-82310163D01*
X129935663Y-82068498D01*
X130125537Y-81784331D01*
X130256325Y-81468581D01*
X130323000Y-81133383D01*
X130323000Y-80791617D01*
X130256325Y-80456419D01*
X130125537Y-80140669D01*
X129935663Y-79856502D01*
X129693998Y-79614837D01*
X129409831Y-79424963D01*
X129094081Y-79294175D01*
X128758883Y-79227500D01*
X128417117Y-79227500D01*
X128081919Y-79294175D01*
X127766169Y-79424963D01*
X127482002Y-79614837D01*
X127240337Y-79856502D01*
X127050463Y-80140669D01*
X126920403Y-80454661D01*
X126839524Y-80048054D01*
X126603201Y-79477521D01*
X126367075Y-79124132D01*
X126383647Y-79122500D01*
X140316353Y-79122500D01*
X140350000Y-79125814D01*
X140383647Y-79122500D01*
X140484283Y-79112588D01*
X140613406Y-79073419D01*
X140732407Y-79009812D01*
X140836711Y-78924211D01*
X140922312Y-78819907D01*
X140985919Y-78700906D01*
X141025088Y-78571783D01*
X141038314Y-78437500D01*
X141035000Y-78403853D01*
X141035000Y-64471147D01*
X141038314Y-64437500D01*
X141025088Y-64303217D01*
X140985919Y-64174094D01*
X140922312Y-64055093D01*
X140836711Y-63950789D01*
X140732407Y-63865188D01*
X140613406Y-63801581D01*
X140484283Y-63762412D01*
X140383647Y-63752500D01*
X140350000Y-63749186D01*
X140316353Y-63752500D01*
X126383647Y-63752500D01*
X126350000Y-63749186D01*
X126316353Y-63752500D01*
X126215717Y-63762412D01*
X126086594Y-63801581D01*
X125967593Y-63865188D01*
X125863289Y-63950789D01*
X125777688Y-64055093D01*
X125714081Y-64174094D01*
X125674912Y-64303217D01*
X125661686Y-64437500D01*
X125665000Y-64471147D01*
X125665001Y-78403843D01*
X125663368Y-78420425D01*
X125309979Y-78184299D01*
X124739446Y-77947976D01*
X124133771Y-77827500D01*
X123516229Y-77827500D01*
X122910554Y-77947976D01*
X122340021Y-78184299D01*
X121986632Y-78420425D01*
X121985000Y-78403853D01*
X121985000Y-64471147D01*
X121988314Y-64437500D01*
X121975088Y-64303217D01*
X121935919Y-64174094D01*
X121872312Y-64055093D01*
X121786711Y-63950789D01*
X121682407Y-63865188D01*
X121563406Y-63801581D01*
X121434283Y-63762412D01*
X121333647Y-63752500D01*
X121300000Y-63749186D01*
X121266353Y-63752500D01*
X107333647Y-63752500D01*
X107300000Y-63749186D01*
X107266353Y-63752500D01*
X107165717Y-63762412D01*
X107036594Y-63801581D01*
X106917593Y-63865188D01*
X106813289Y-63950789D01*
X106727688Y-64055093D01*
X106664081Y-64174094D01*
X106624912Y-64303217D01*
X106611686Y-64437500D01*
X102938314Y-64437500D01*
X102925088Y-64303217D01*
X102885919Y-64174094D01*
X102822312Y-64055093D01*
X102736711Y-63950789D01*
X102632407Y-63865188D01*
X102513406Y-63801581D01*
X102384283Y-63762412D01*
X102283647Y-63752500D01*
X102250000Y-63749186D01*
X102216353Y-63752500D01*
X88283647Y-63752500D01*
X88250000Y-63749186D01*
X88216353Y-63752500D01*
X88115717Y-63762412D01*
X87986594Y-63801581D01*
X87867593Y-63865188D01*
X87763289Y-63950789D01*
X87677688Y-64055093D01*
X87614081Y-64174094D01*
X87574912Y-64303217D01*
X87561686Y-64437500D01*
X83888314Y-64437500D01*
X83875088Y-64303217D01*
X83835919Y-64174094D01*
X83772312Y-64055093D01*
X83686711Y-63950789D01*
X83582407Y-63865188D01*
X83463406Y-63801581D01*
X83334283Y-63762412D01*
X83233647Y-63752500D01*
X83200000Y-63749186D01*
X83166353Y-63752500D01*
X69233647Y-63752500D01*
X69200000Y-63749186D01*
X69166353Y-63752500D01*
X69065717Y-63762412D01*
X68936594Y-63801581D01*
X68817593Y-63865188D01*
X68713289Y-63950789D01*
X68627688Y-64055093D01*
X68564081Y-64174094D01*
X68524912Y-64303217D01*
X68511686Y-64437500D01*
X68515000Y-64471147D01*
X68515001Y-78403843D01*
X68513368Y-78420425D01*
X68159979Y-78184299D01*
X67589446Y-77947976D01*
X66983771Y-77827500D01*
X66366229Y-77827500D01*
X65760554Y-77947976D01*
X65190021Y-78184299D01*
X64836632Y-78420425D01*
X64835000Y-78403853D01*
X64835000Y-64471147D01*
X64838314Y-64437500D01*
X64825088Y-64303217D01*
X64785919Y-64174094D01*
X64722312Y-64055093D01*
X64636711Y-63950789D01*
X64532407Y-63865188D01*
X64413406Y-63801581D01*
X64284283Y-63762412D01*
X64183647Y-63752500D01*
X64150000Y-63749186D01*
X64116353Y-63752500D01*
X50183647Y-63752500D01*
X50150000Y-63749186D01*
X50116353Y-63752500D01*
X50015717Y-63762412D01*
X49886594Y-63801581D01*
X49767593Y-63865188D01*
X49663289Y-63950789D01*
X49577688Y-64055093D01*
X49514081Y-64174094D01*
X49474912Y-64303217D01*
X49461686Y-64437500D01*
X48360000Y-64437500D01*
X48360000Y-45387500D01*
X49461686Y-45387500D01*
X49465000Y-45421147D01*
X49465001Y-59353843D01*
X49461686Y-59387500D01*
X49474912Y-59521783D01*
X49514081Y-59650906D01*
X49577688Y-59769907D01*
X49663289Y-59874211D01*
X49767593Y-59959812D01*
X49886594Y-60023419D01*
X50015717Y-60062588D01*
X50116353Y-60072500D01*
X50150000Y-60075814D01*
X50183647Y-60072500D01*
X64116353Y-60072500D01*
X64150000Y-60075814D01*
X64183647Y-60072500D01*
X64284283Y-60062588D01*
X64413406Y-60023419D01*
X64532407Y-59959812D01*
X64636711Y-59874211D01*
X64722312Y-59769907D01*
X64785919Y-59650906D01*
X64825088Y-59521783D01*
X64838314Y-59387500D01*
X64835000Y-59353853D01*
X64835000Y-45421147D01*
X64838314Y-45387500D01*
X68511686Y-45387500D01*
X68515000Y-45421147D01*
X68515001Y-59353843D01*
X68511686Y-59387500D01*
X68524912Y-59521783D01*
X68564081Y-59650906D01*
X68627688Y-59769907D01*
X68713289Y-59874211D01*
X68817593Y-59959812D01*
X68936594Y-60023419D01*
X69065717Y-60062588D01*
X69166353Y-60072500D01*
X69200000Y-60075814D01*
X69233647Y-60072500D01*
X83166353Y-60072500D01*
X83200000Y-60075814D01*
X83233647Y-60072500D01*
X83334283Y-60062588D01*
X83463406Y-60023419D01*
X83582407Y-59959812D01*
X83686711Y-59874211D01*
X83772312Y-59769907D01*
X83835919Y-59650906D01*
X83875088Y-59521783D01*
X83888314Y-59387500D01*
X83885000Y-59353853D01*
X83885000Y-45421147D01*
X83888314Y-45387500D01*
X87561686Y-45387500D01*
X87565000Y-45421147D01*
X87565001Y-59353843D01*
X87561686Y-59387500D01*
X87574912Y-59521783D01*
X87614081Y-59650906D01*
X87677688Y-59769907D01*
X87763289Y-59874211D01*
X87867593Y-59959812D01*
X87986594Y-60023419D01*
X88115717Y-60062588D01*
X88216353Y-60072500D01*
X88250000Y-60075814D01*
X88283647Y-60072500D01*
X102216353Y-60072500D01*
X102250000Y-60075814D01*
X102283647Y-60072500D01*
X102384283Y-60062588D01*
X102513406Y-60023419D01*
X102632407Y-59959812D01*
X102736711Y-59874211D01*
X102822312Y-59769907D01*
X102885919Y-59650906D01*
X102925088Y-59521783D01*
X102938314Y-59387500D01*
X102935000Y-59353853D01*
X102935000Y-45421147D01*
X102938314Y-45387500D01*
X106611686Y-45387500D01*
X106615000Y-45421147D01*
X106615001Y-59353843D01*
X106611686Y-59387500D01*
X106624912Y-59521783D01*
X106664081Y-59650906D01*
X106727688Y-59769907D01*
X106813289Y-59874211D01*
X106917593Y-59959812D01*
X107036594Y-60023419D01*
X107165717Y-60062588D01*
X107266353Y-60072500D01*
X107300000Y-60075814D01*
X107333647Y-60072500D01*
X121266353Y-60072500D01*
X121300000Y-60075814D01*
X121333647Y-60072500D01*
X121434283Y-60062588D01*
X121563406Y-60023419D01*
X121682407Y-59959812D01*
X121786711Y-59874211D01*
X121872312Y-59769907D01*
X121935919Y-59650906D01*
X121975088Y-59521783D01*
X121988314Y-59387500D01*
X121985000Y-59353853D01*
X121985000Y-45421147D01*
X121988314Y-45387500D01*
X125661686Y-45387500D01*
X125665000Y-45421147D01*
X125665001Y-59353843D01*
X125661686Y-59387500D01*
X125674912Y-59521783D01*
X125714081Y-59650906D01*
X125777688Y-59769907D01*
X125863289Y-59874211D01*
X125967593Y-59959812D01*
X126086594Y-60023419D01*
X126215717Y-60062588D01*
X126316353Y-60072500D01*
X126350000Y-60075814D01*
X126383647Y-60072500D01*
X140316353Y-60072500D01*
X140350000Y-60075814D01*
X140383647Y-60072500D01*
X140484283Y-60062588D01*
X140613406Y-60023419D01*
X140732407Y-59959812D01*
X140836711Y-59874211D01*
X140922312Y-59769907D01*
X140985919Y-59650906D01*
X141025088Y-59521783D01*
X141038314Y-59387500D01*
X141035000Y-59353853D01*
X141035000Y-45421147D01*
X141038314Y-45387500D01*
X141025088Y-45253217D01*
X140985919Y-45124094D01*
X140922312Y-45005093D01*
X140836711Y-44900789D01*
X140732407Y-44815188D01*
X140613406Y-44751581D01*
X140484283Y-44712412D01*
X140383647Y-44702500D01*
X140350000Y-44699186D01*
X140316353Y-44702500D01*
X126383647Y-44702500D01*
X126350000Y-44699186D01*
X126316353Y-44702500D01*
X126215717Y-44712412D01*
X126086594Y-44751581D01*
X125967593Y-44815188D01*
X125863289Y-44900789D01*
X125777688Y-45005093D01*
X125714081Y-45124094D01*
X125674912Y-45253217D01*
X125661686Y-45387500D01*
X121988314Y-45387500D01*
X121975088Y-45253217D01*
X121935919Y-45124094D01*
X121872312Y-45005093D01*
X121786711Y-44900789D01*
X121682407Y-44815188D01*
X121563406Y-44751581D01*
X121434283Y-44712412D01*
X121333647Y-44702500D01*
X121300000Y-44699186D01*
X121266353Y-44702500D01*
X107333647Y-44702500D01*
X107300000Y-44699186D01*
X107266353Y-44702500D01*
X107165717Y-44712412D01*
X107036594Y-44751581D01*
X106917593Y-44815188D01*
X106813289Y-44900789D01*
X106727688Y-45005093D01*
X106664081Y-45124094D01*
X106624912Y-45253217D01*
X106611686Y-45387500D01*
X102938314Y-45387500D01*
X102925088Y-45253217D01*
X102885919Y-45124094D01*
X102822312Y-45005093D01*
X102736711Y-44900789D01*
X102632407Y-44815188D01*
X102513406Y-44751581D01*
X102384283Y-44712412D01*
X102283647Y-44702500D01*
X102250000Y-44699186D01*
X102216353Y-44702500D01*
X88283647Y-44702500D01*
X88250000Y-44699186D01*
X88216353Y-44702500D01*
X88115717Y-44712412D01*
X87986594Y-44751581D01*
X87867593Y-44815188D01*
X87763289Y-44900789D01*
X87677688Y-45005093D01*
X87614081Y-45124094D01*
X87574912Y-45253217D01*
X87561686Y-45387500D01*
X83888314Y-45387500D01*
X83875088Y-45253217D01*
X83835919Y-45124094D01*
X83772312Y-45005093D01*
X83686711Y-44900789D01*
X83582407Y-44815188D01*
X83463406Y-44751581D01*
X83334283Y-44712412D01*
X83233647Y-44702500D01*
X83200000Y-44699186D01*
X83166353Y-44702500D01*
X69233647Y-44702500D01*
X69200000Y-44699186D01*
X69166353Y-44702500D01*
X69065717Y-44712412D01*
X68936594Y-44751581D01*
X68817593Y-44815188D01*
X68713289Y-44900789D01*
X68627688Y-45005093D01*
X68564081Y-45124094D01*
X68524912Y-45253217D01*
X68511686Y-45387500D01*
X64838314Y-45387500D01*
X64825088Y-45253217D01*
X64785919Y-45124094D01*
X64722312Y-45005093D01*
X64636711Y-44900789D01*
X64532407Y-44815188D01*
X64413406Y-44751581D01*
X64284283Y-44712412D01*
X64183647Y-44702500D01*
X64150000Y-44699186D01*
X64116353Y-44702500D01*
X50183647Y-44702500D01*
X50150000Y-44699186D01*
X50116353Y-44702500D01*
X50015717Y-44712412D01*
X49886594Y-44751581D01*
X49767593Y-44815188D01*
X49663289Y-44900789D01*
X49577688Y-45005093D01*
X49514081Y-45124094D01*
X49474912Y-45253217D01*
X49461686Y-45387500D01*
X48360000Y-45387500D01*
X48360000Y-42691617D01*
X64940000Y-42691617D01*
X64940000Y-43033383D01*
X65006675Y-43368581D01*
X65137463Y-43684331D01*
X65327337Y-43968498D01*
X65569002Y-44210163D01*
X65853169Y-44400037D01*
X66168919Y-44530825D01*
X66504117Y-44597500D01*
X66845883Y-44597500D01*
X67181081Y-44530825D01*
X67496831Y-44400037D01*
X67780998Y-44210163D01*
X68022663Y-43968498D01*
X68212537Y-43684331D01*
X68343325Y-43368581D01*
X68410000Y-43033383D01*
X68410000Y-42691617D01*
X122090000Y-42691617D01*
X122090000Y-43033383D01*
X122156675Y-43368581D01*
X122287463Y-43684331D01*
X122477337Y-43968498D01*
X122719002Y-44210163D01*
X123003169Y-44400037D01*
X123318919Y-44530825D01*
X123654117Y-44597500D01*
X123995883Y-44597500D01*
X124331081Y-44530825D01*
X124646831Y-44400037D01*
X124930998Y-44210163D01*
X125172663Y-43968498D01*
X125362537Y-43684331D01*
X125493325Y-43368581D01*
X125560000Y-43033383D01*
X125560000Y-42691617D01*
X125493325Y-42356419D01*
X125362537Y-42040669D01*
X125172663Y-41756502D01*
X124930998Y-41514837D01*
X124646831Y-41324963D01*
X124331081Y-41194175D01*
X123995883Y-41127500D01*
X123654117Y-41127500D01*
X123318919Y-41194175D01*
X123003169Y-41324963D01*
X122719002Y-41514837D01*
X122477337Y-41756502D01*
X122287463Y-42040669D01*
X122156675Y-42356419D01*
X122090000Y-42691617D01*
X68410000Y-42691617D01*
X68343325Y-42356419D01*
X68212537Y-42040669D01*
X68022663Y-41756502D01*
X67780998Y-41514837D01*
X67496831Y-41324963D01*
X67181081Y-41194175D01*
X66845883Y-41127500D01*
X66504117Y-41127500D01*
X66168919Y-41194175D01*
X65853169Y-41324963D01*
X65569002Y-41514837D01*
X65327337Y-41756502D01*
X65137463Y-42040669D01*
X65006675Y-42356419D01*
X64940000Y-42691617D01*
X48360000Y-42691617D01*
X48360000Y-28538895D01*
X48350330Y-28440713D01*
X48405800Y-27837035D01*
X48606956Y-27123790D01*
X48934728Y-26459134D01*
X49378128Y-25865350D01*
X49922318Y-25362307D01*
X50549060Y-24966861D01*
X51237379Y-24692250D01*
X51977973Y-24544936D01*
X52406092Y-24522500D01*
X63506193Y-24522500D01*
X63510808Y-24545809D01*
M02*
