G04 #@! TF.GenerationSoftware,KiCad,Pcbnew,5.1.2-f72e74a~84~ubuntu18.04.1*
G04 #@! TF.CreationDate,2019-06-18T11:16:38+09:00*
G04 #@! TF.ProjectId,top-plate,746f702d-706c-4617-9465-2e6b69636164,rev?*
G04 #@! TF.SameCoordinates,Original*
G04 #@! TF.FileFunction,Profile,NP*
%FSLAX46Y46*%
G04 Gerber Fmt 4.6, Leading zero omitted, Abs format (unit mm)*
G04 Created by KiCad (PCBNEW 5.1.2-f72e74a~84~ubuntu18.04.1) date 2019-06-18 11:16:38*
%MOMM*%
%LPD*%
G04 APERTURE LIST*
%ADD10C,0.150000*%
%ADD11C,0.200000*%
%ADD12C,0.100000*%
G04 APERTURE END LIST*
D10*
X126365000Y-23812500D02*
X138112500Y-23812500D01*
X69215000Y-23812500D02*
X121285000Y-23812500D01*
X52387500Y-23812500D02*
X64135000Y-23812500D01*
X69215000Y-23812500D02*
G75*
G02X64135000Y-23812500I-2540000J0D01*
G01*
X126365000Y-23812500D02*
G75*
G02X121285000Y-23812500I-2540000J0D01*
G01*
X142875000Y-95250000D02*
G75*
G02X138112500Y-100012500I-4762500J0D01*
G01*
X52387500Y-100012500D02*
G75*
G02X47625000Y-95250000I0J4762500D01*
G01*
X47625000Y-28575000D02*
G75*
G02X52387500Y-23812500I4762500J0D01*
G01*
X138112500Y-23812500D02*
G75*
G02X142875000Y-28575000I0J-4762500D01*
G01*
D11*
X142875000Y-95250000D02*
X142875000Y-28575000D01*
X52387500Y-100012500D02*
X138112500Y-100012500D01*
X47625000Y-28575000D02*
X47625000Y-95250000D01*
D12*
X102250000Y-97487500D02*
X102250000Y-83487500D01*
X88250000Y-97487500D02*
X102250000Y-97487500D01*
X88250000Y-83487500D02*
X88250000Y-97487500D01*
X102250000Y-83487500D02*
X88250000Y-83487500D01*
X121300000Y-97487500D02*
X121300000Y-83487500D01*
X107300000Y-97487500D02*
X121300000Y-97487500D01*
X107300000Y-83487500D02*
X107300000Y-97487500D01*
X121300000Y-83487500D02*
X107300000Y-83487500D01*
X64150000Y-97487500D02*
X64150000Y-83487500D01*
X50150000Y-97487500D02*
X64150000Y-97487500D01*
X50150000Y-83487500D02*
X50150000Y-97487500D01*
X64150000Y-83487500D02*
X50150000Y-83487500D01*
X83200000Y-97487500D02*
X83200000Y-83487500D01*
X69200000Y-97487500D02*
X83200000Y-97487500D01*
X69200000Y-83487500D02*
X69200000Y-97487500D01*
X83200000Y-83487500D02*
X69200000Y-83487500D01*
X140350000Y-97487500D02*
X140350000Y-83487500D01*
X126350000Y-97487500D02*
X140350000Y-97487500D01*
X126350000Y-83487500D02*
X126350000Y-97487500D01*
X140350000Y-83487500D02*
X126350000Y-83487500D01*
X83200000Y-78437500D02*
X83200000Y-64437500D01*
X69200000Y-78437500D02*
X83200000Y-78437500D01*
X69200000Y-64437500D02*
X69200000Y-78437500D01*
X83200000Y-64437500D02*
X69200000Y-64437500D01*
X64150000Y-78437500D02*
X64150000Y-64437500D01*
X50150000Y-78437500D02*
X64150000Y-78437500D01*
X50150000Y-64437500D02*
X50150000Y-78437500D01*
X64150000Y-64437500D02*
X50150000Y-64437500D01*
X140350000Y-78437500D02*
X140350000Y-64437500D01*
X126350000Y-78437500D02*
X140350000Y-78437500D01*
X126350000Y-64437500D02*
X126350000Y-78437500D01*
X140350000Y-64437500D02*
X126350000Y-64437500D01*
X102250000Y-78437500D02*
X102250000Y-64437500D01*
X88250000Y-78437500D02*
X102250000Y-78437500D01*
X88250000Y-64437500D02*
X88250000Y-78437500D01*
X102250000Y-64437500D02*
X88250000Y-64437500D01*
X121300000Y-78437500D02*
X121300000Y-64437500D01*
X107300000Y-78437500D02*
X121300000Y-78437500D01*
X107300000Y-64437500D02*
X107300000Y-78437500D01*
X121300000Y-64437500D02*
X107300000Y-64437500D01*
X102250000Y-59387500D02*
X102250000Y-45387500D01*
X88250000Y-59387500D02*
X102250000Y-59387500D01*
X88250000Y-45387500D02*
X88250000Y-59387500D01*
X102250000Y-45387500D02*
X88250000Y-45387500D01*
X121300000Y-59387500D02*
X121300000Y-45387500D01*
X107300000Y-59387500D02*
X121300000Y-59387500D01*
X107300000Y-45387500D02*
X107300000Y-59387500D01*
X121300000Y-45387500D02*
X107300000Y-45387500D01*
X83200000Y-59387500D02*
X83200000Y-45387500D01*
X69200000Y-59387500D02*
X83200000Y-59387500D01*
X69200000Y-45387500D02*
X69200000Y-59387500D01*
X83200000Y-45387500D02*
X69200000Y-45387500D01*
X140350000Y-59387500D02*
X140350000Y-45387500D01*
X126350000Y-59387500D02*
X140350000Y-59387500D01*
X126350000Y-45387500D02*
X126350000Y-59387500D01*
X140350000Y-45387500D02*
X126350000Y-45387500D01*
X64150000Y-59387500D02*
X64150000Y-45387500D01*
X50150000Y-59387500D02*
X64150000Y-59387500D01*
X50150000Y-45387500D02*
X50150000Y-59387500D01*
X64150000Y-45387500D02*
X50150000Y-45387500D01*
X64150000Y-40337500D02*
X64150000Y-26337500D01*
X50150000Y-40337500D02*
X64150000Y-40337500D01*
X50150000Y-26337500D02*
X50150000Y-40337500D01*
X64150000Y-26337500D02*
X50150000Y-26337500D01*
X83200000Y-40337500D02*
X83200000Y-26337500D01*
X69200000Y-40337500D02*
X83200000Y-40337500D01*
X69200000Y-26337500D02*
X69200000Y-40337500D01*
X83200000Y-26337500D02*
X69200000Y-26337500D01*
X102250000Y-40337500D02*
X102250000Y-26337500D01*
X88250000Y-40337500D02*
X102250000Y-40337500D01*
X88250000Y-26337500D02*
X88250000Y-40337500D01*
X102250000Y-26337500D02*
X88250000Y-26337500D01*
X121300000Y-40337500D02*
X121300000Y-26337500D01*
X107300000Y-40337500D02*
X121300000Y-40337500D01*
X107300000Y-26337500D02*
X107300000Y-40337500D01*
X121300000Y-26337500D02*
X107300000Y-26337500D01*
X140350000Y-40337500D02*
X140350000Y-26337500D01*
X126350000Y-40337500D02*
X140350000Y-40337500D01*
X126350000Y-26337500D02*
X126350000Y-40337500D01*
X140350000Y-26337500D02*
X126350000Y-26337500D01*
M02*
