M48
;DRILL file {KiCad 5.0.2-bee76a0~70~ubuntu18.04.1} date 2019年02月22日 00時55分01秒
;FORMAT={-:-/ absolute / metric / decimal}
FMAT,2
METRIC,TZ
T1C1.200
T2C1.700
T3C1.900
T4C3.000
T5C3.200
T6C4.000
T7C4.800
%
G90
G05
T1
X114.3Y-27.794
X114.3Y-34.794
X28.575Y-27.794
X28.575Y-34.794
T2
X85.407Y-111.919
X95.567Y-111.919
X28.258Y-73.819
X38.417Y-73.819
X85.407Y-54.769
X95.567Y-54.769
X66.358Y-92.869
X76.517Y-92.869
X104.458Y-54.769
X114.618Y-54.769
X104.458Y-92.869
X114.618Y-92.869
X47.307Y-111.919
X57.467Y-111.919
X66.358Y-54.769
X76.517Y-54.769
X104.458Y-111.919
X114.618Y-111.919
X28.258Y-111.919
X38.417Y-111.919
X28.258Y-92.869
X38.417Y-92.869
X47.307Y-73.819
X57.467Y-73.819
X85.407Y-92.869
X95.567Y-92.869
X104.458Y-73.819
X114.618Y-73.819
X66.358Y-111.919
X76.517Y-111.919
X47.307Y-92.869
X57.467Y-92.869
X47.307Y-54.769
X57.467Y-54.769
X66.358Y-73.819
X76.517Y-73.819
X85.407Y-73.819
X95.567Y-73.819
X28.258Y-54.769
X38.417Y-54.769
T3
X27.837Y-92.869
X38.837Y-92.869
X46.887Y-73.819
X57.887Y-73.819
X84.987Y-92.869
X95.987Y-92.869
X104.038Y-73.819
X115.038Y-73.819
X65.938Y-111.919
X76.938Y-111.919
X46.887Y-92.869
X57.887Y-92.869
X46.887Y-54.769
X57.887Y-54.769
X65.938Y-73.819
X76.938Y-73.819
X84.987Y-73.819
X95.987Y-73.819
X27.837Y-54.769
X38.837Y-54.769
X84.987Y-111.919
X95.987Y-111.919
X27.837Y-73.819
X38.837Y-73.819
X84.987Y-54.769
X95.987Y-54.769
X65.938Y-92.869
X76.938Y-92.869
X104.038Y-54.769
X115.038Y-54.769
X104.038Y-92.869
X115.038Y-92.869
X46.887Y-111.919
X57.887Y-111.919
X65.938Y-54.769
X76.938Y-54.769
X104.038Y-111.919
X115.038Y-111.919
X27.837Y-111.919
X38.837Y-111.919
T4
X104.538Y-58.469
X105.728Y-52.229
X109.538Y-60.669
X112.078Y-49.689
X104.538Y-96.569
X105.728Y-90.329
X109.538Y-98.769
X112.078Y-87.789
X47.387Y-115.619
X48.578Y-109.379
X52.387Y-117.819
X54.927Y-106.839
X66.438Y-58.469
X67.627Y-52.229
X71.438Y-60.669
X73.977Y-49.689
X104.538Y-115.619
X105.728Y-109.379
X109.538Y-117.819
X112.078Y-106.839
X28.337Y-115.619
X29.527Y-109.379
X33.337Y-117.819
X35.877Y-106.839
X28.337Y-96.569
X29.527Y-90.329
X33.337Y-98.769
X35.877Y-87.789
X47.387Y-77.519
X48.578Y-71.279
X52.387Y-79.719
X54.927Y-68.739
X85.487Y-96.569
X86.677Y-90.329
X90.487Y-98.769
X93.027Y-87.789
X104.538Y-77.519
X105.728Y-71.279
X109.538Y-79.719
X112.078Y-68.739
X66.438Y-115.619
X67.627Y-109.379
X71.438Y-117.819
X73.977Y-106.839
X47.387Y-96.569
X48.578Y-90.329
X52.387Y-98.769
X54.927Y-87.789
X47.387Y-58.469
X48.578Y-52.229
X52.387Y-60.669
X54.927Y-49.689
X66.438Y-77.519
X67.627Y-71.279
X71.438Y-79.719
X73.977Y-68.739
X85.487Y-77.519
X86.677Y-71.279
X90.487Y-79.719
X93.027Y-68.739
X28.337Y-58.469
X29.527Y-52.229
X33.337Y-60.669
X35.877Y-49.689
X85.487Y-115.619
X86.677Y-109.379
X90.487Y-117.819
X93.027Y-106.839
X28.337Y-77.519
X29.527Y-71.279
X33.337Y-79.719
X35.877Y-68.739
X85.487Y-58.469
X86.677Y-52.229
X90.487Y-60.669
X93.027Y-49.689
X66.438Y-96.569
X67.627Y-90.329
X71.438Y-98.769
X73.977Y-87.789
T5
X100.012Y-102.394
X42.862Y-102.394
X100.012Y-45.244
X42.862Y-45.244
T6
X109.538Y-54.769
X109.538Y-92.869
X52.387Y-111.919
X71.438Y-54.769
X109.538Y-111.919
X33.337Y-111.919
X33.337Y-92.869
X52.387Y-73.819
X90.487Y-92.869
X109.538Y-73.819
X71.438Y-111.919
X52.387Y-92.869
X52.387Y-54.769
X71.438Y-73.819
X90.487Y-73.819
X33.337Y-54.769
X90.487Y-111.919
X33.337Y-73.819
X90.487Y-54.769
X71.438Y-92.869
T7
X104.775Y-102.394
X100.012Y-64.294
X42.862Y-64.294
X38.1Y-102.394
T0
M30
