M48
;DRILL file {KiCad 5.0.2-bee76a0~70~ubuntu18.04.1} date 2019年02月22日 00時55分01秒
;FORMAT={-:-/ absolute / metric / decimal}
FMAT,2
METRIC,TZ
T1C0.500
T2C0.600
T3C0.800
T4C0.900
%
G90
G05
T2
X42.545Y-83.82
X54.61Y-83.82
X54.927Y-36.989
X56.832Y-35.719
X62.865Y-83.185
X67.31Y-65.405
X67.31Y-104.14
X67.945Y-83.82
X68.583Y-82.55
X73.66Y-101.6
X76.835Y-60.96
X78.74Y-120.015
X79.057Y-35.084
X80.962Y-36.354
X82.55Y-106.68
X83.185Y-100.33
X86.36Y-67.31
X86.995Y-64.77
X88.9Y-66.04
X90.805Y-46.99
X91.899Y-43.974
X92.71Y-46.035
X110.966Y-33.814
T3
X71.438Y-32.544
X69.532Y-27.464
X72.032Y-27.464
X35.719Y-32.861
X35.719Y-40.481
X38.259Y-32.861
X38.259Y-40.481
X40.799Y-32.861
X40.799Y-40.481
X43.339Y-32.861
X43.339Y-40.481
X45.879Y-32.861
X45.879Y-40.481
X48.419Y-32.861
X48.419Y-40.481
X50.959Y-32.861
X50.959Y-40.481
X53.499Y-32.861
X53.499Y-40.481
X56.039Y-32.861
X56.039Y-40.481
X58.579Y-32.861
X58.579Y-40.481
X61.119Y-32.861
X61.119Y-40.481
X63.659Y-32.861
X63.659Y-40.481
X66.199Y-32.861
X66.199Y-40.481
X68.739Y-32.861
X68.739Y-40.481
X73.819Y-32.861
X73.819Y-40.481
X76.359Y-32.861
X76.359Y-40.481
X78.899Y-32.861
X78.899Y-40.481
X81.439Y-32.861
X81.439Y-40.481
X83.979Y-32.861
X83.979Y-40.481
X86.519Y-32.861
X86.519Y-40.481
X89.059Y-32.861
X89.059Y-40.481
X91.599Y-32.861
X91.599Y-40.481
X94.139Y-32.861
X94.139Y-40.481
X96.679Y-32.861
X96.679Y-40.481
X99.219Y-32.861
X99.219Y-40.481
X101.759Y-32.861
X101.759Y-40.481
X104.299Y-32.861
X104.299Y-40.481
X106.839Y-32.861
X106.839Y-40.481
X53.023Y-27.464
X60.642Y-27.464
T4
X46.672Y-27.464
X49.212Y-27.464
T1
X95.082Y-27.464G85X94.782Y-27.464
G05
X97.623Y-27.464G85X97.322Y-27.464
G05
X100.162Y-27.464G85X99.862Y-27.464
G05
X84.922Y-27.464G85X84.623Y-27.464
G05
X87.462Y-27.464G85X87.162Y-27.464
G05
X90.002Y-27.464G85X89.703Y-27.464
G05
T4
X112.Y-37.294G85X112.Y-37.694
G05
X116.6Y-29.194G85X116.6Y-29.594
G05
X116.6Y-32.194G85X116.6Y-32.594
G05
X116.6Y-36.194G85X116.6Y-36.594
G05
X26.275Y-37.294G85X26.275Y-37.694
G05
X30.875Y-29.194G85X30.875Y-29.594
G05
X30.875Y-32.194G85X30.875Y-32.594
G05
X30.875Y-36.194G85X30.875Y-36.594
G05
T0
M30
